<svg xmlns="http://www.w3.org/2000/svg" fill="none" viewBox="0 0 16 16"><g fill="currentColor" clip-path="url(#a)"><path d="M12.667.667a.667.667 0 0 0-1.334 0V2h1.334zm-8 0a.667.667 0 0 0-1.334 0V2h1.334zm9.333 2H2a2 2 0 0 0-2 2v8.666a2 2 0 0 0 2 2h12a2 2 0 0 0 2-2V4.667a2 2 0 0 0-2-2m.667 10.666A.667.667 0 0 1 14 14H2a.667.667 0 0 1-.667-.667V6h13.334z"/><path d="M5 7.333H3a.333.333 0 0 0-.333.334V9c0 .184.149.333.333.333h2A.333.333 0 0 0 5.333 9V7.667A.333.333 0 0 0 5 7.333m4 0H7a.333.333 0 0 0-.333.334V9c0 .184.149.333.333.333h2A.333.333 0 0 0 9.333 9V7.667A.333.333 0 0 0 9 7.333m-4 3.334H3a.333.333 0 0 0-.333.333v1.333c0 .184.149.334.333.334h2c.184 0 .333-.15.333-.334V11A.333.333 0 0 0 5 10.667m4 0H7a.333.333 0 0 0-.333.333v1.333c0 .184.149.334.333.334h2c.184 0 .333-.15.333-.334V11A.333.333 0 0 0 9 10.667m4-3.334h-2a.333.333 0 0 0-.333.334V9c0 .184.149.333.333.333h2A.333.333 0 0 0 13.333 9V7.667A.333.333 0 0 0 13 7.333"/></g><defs><clipPath id="a"><path fill="currentColor" d="M0 0h16v16H0z"/></clipPath></defs></svg>