<svg xmlns="http://www.w3.org/2000/svg" fill="none" viewBox="0 0 80 80"><g fill="currentColor" clip-path="url(#a)"><path d="M40 0C17.943 0 0 17.943 0 40s17.943 40 40 40 40-17.946 40-40S62.057 0 40 0m0 73.803C21.363 73.803 6.197 58.64 6.197 40S21.363 6.197 40 6.197C58.64 6.197 73.803 21.36 73.803 40S58.637 73.803 40 73.803"/><path d="M58.352 26.088a3.1 3.1 0 0 0-4.375.21l-18.9 20.813-9.131-9.283a3.095 3.095 0 0 0-4.381-.037 3.095 3.095 0 0 0-.038 4.381l11.43 11.619a3.1 3.1 0 0 0 2.21.926c.018 0 .04 0 .058.004a3.1 3.1 0 0 0 2.234-1.017l21.103-23.238a3.1 3.1 0 0 0-.21-4.378"/></g><defs><clipPath id="a"><path fill="currentColor" d="M0 0h80v80H0z"/></clipPath></defs></svg>