<svg width="1em" height="1em" viewBox="0 0 24 24" fill="none" xmlns="http://www.w3.org/2000/svg">
  <path d="M24 12.0726C23.9997 9.77939 23.3424 7.53428 22.1058 5.60306C20.8692 3.67184 19.1051 2.13539 17.0225 1.17559C14.9398 0.2158 12.6257 -0.127136 10.3542 0.187384C8.08263 0.501904 5.94878 1.46071 4.20524 2.95029C2.4617 4.43987 1.18149 6.39784 0.516158 8.5924C-0.149172 10.787 -0.171753 13.1262 0.451088 15.3332C1.07393 17.5402 2.31611 19.5225 4.03057 21.0455C5.74503 22.5685 7.85996 23.5683 10.125 23.9266V15.5416H7.078V12.0726H10.125V9.42859C10.125 6.42159 11.917 4.75959 14.657 4.75959C15.5571 4.7725 16.4552 4.85071 17.344 4.99359V7.94759H15.83C15.3742 7.88709 14.9131 8.01007 14.548 8.28948C14.1829 8.56889 13.9437 8.98186 13.883 9.43759C13.8658 9.56522 13.8632 9.69437 13.875 9.82259V12.0726H17.2L16.668 15.5416H13.868V23.9266C16.692 23.4816 19.2644 22.0429 21.1219 19.8697C22.9795 17.6965 24.0001 14.9315 24 12.0726Z" fill="currentColor"/>
</svg>
