<svg xmlns="http://www.w3.org/2000/svg" width="116" height="50"><g fill="currentColor" fill-rule="nonzero"><path d="M0 12.693V1.434a1.2 1.2 0 0 1 2.4 0v2.478a2 2 0 0 0 2 2h2.517a2 2 0 0 0 2-2V1.434a1.2 1.2 0 0 1 2.4 0v11.259a1.2 1.2 0 1 1-2.4 0v-2.556a2 2 0 0 0-2-2H4.4a2 2 0 0 0-2 2v2.556a1.2 1.2 0 1 1-2.4 0m33.054 1.434c-4.195 0-7.122-3.18-7.122-7.025v-.039C25.932 3.22 28.898 0 33.092 0c4.196 0 7.123 3.18 7.123 7.024v.04c0 3.843-2.966 7.063-7.161 7.063m.039-2.205c2.712 0 4.605-2.166 4.605-4.82v-.039c0-2.653-1.932-4.858-4.644-4.858s-4.605 2.166-4.605 4.82v.038c0 2.654 1.931 4.859 4.644 4.859m27.336 2.185c-3.551 0-5.814-2.048-5.814-6.01V1.435a1.2 1.2 0 0 1 2.4 0V8c0 2.537 1.307 3.902 3.453 3.902 2.127 0 3.434-1.287 3.434-3.804V1.434a1.2 1.2 0 0 1 2.4 0V7.98c0 4.079-2.302 6.127-5.873 6.127m25.659-.02c-2.088 0-4.059-.721-5.698-2.185l1.444-1.717c1.307 1.132 2.615 1.776 4.312 1.776 1.483 0 2.42-.683 2.42-1.717v-.04c0-.975-.546-1.502-3.083-2.087-2.907-.702-4.546-1.56-4.546-4.078V4c0-2.341 1.95-3.961 4.663-3.961 1.99 0 3.57.605 4.956 1.717l-1.288 1.815c-1.229-.917-2.458-1.405-3.707-1.405-1.405 0-2.224.722-2.224 1.62v.038c0 1.054.624 1.522 3.239 2.147 2.887.702 4.39 1.736 4.39 4v.039c0 2.556-2.01 4.078-4.878 4.078m19.414-.194V.234h9.054a1.073 1.073 0 0 1 0 2.146h-6.654v3.552h5.776a1.073 1.073 0 1 1 0 2.146h-5.776v3.668h6.752a1.073 1.073 0 0 1 0 2.147zM51.766 28.527c-2.078 0-3.473-1.63-3.473-3.512v-.02c0-1.883 1.414-3.532 3.492-3.532s3.474 1.63 3.474 3.513v.02c0 1.882-1.415 3.53-3.493 3.53m.02-.712c1.56 0 2.673-1.25 2.673-2.8v-.02c0-1.551-1.132-2.82-2.693-2.82s-2.673 1.25-2.673 2.8v.02c0 1.551 1.131 2.82 2.692 2.82m10.955.595v-6.83h4.908v.713h-4.137v2.439h3.698v.702h-3.698v2.976zM.478 48.62l5.518-12.63H8.22l5.502 12.594a.83.83 0 0 1-.76 1.162c-.769 0-1.462-.46-1.76-1.169l-.379-.903a2 2 0 0 0-1.844-1.225H5.172a2 2 0 0 0-1.84 1.216l-.405.95a1.86 1.86 0 0 1-1.711 1.131.804.804 0 0 1-.738-1.126m4.25-4.298H9.43l-2.36-5.463zm14.283 4.244V37.2c0-.614.498-1.112 1.112-1.112h.132a2 2 0 0 1 1.58.775l3.825 4.936a1.615 1.615 0 0 0 2.892-.99v-3.54a1.18 1.18 0 0 1 2.361 0V48.74c0 .555-.45 1.005-1.005 1.005h-.024a2 2 0 0 1-1.581-.774l-3.955-5.103a1.662 1.662 0 0 0-2.976 1.019v3.678a1.18 1.18 0 0 1-2.361 0m24.331 1.414c-4.273 0-7.083-3.043-7.083-7.024v-.039c0-3.824 2.927-7.063 7.044-7.063 2.38 0 3.844.663 5.25 1.853l-1.523 1.815c-1.053-.898-2.088-1.463-3.824-1.463-2.517 0-4.43 2.204-4.43 4.819v.04c0 2.809 1.854 4.877 4.644 4.877 1.288 0 2.459-.41 3.298-1.034v-.81c0-.964-.782-1.746-1.746-1.746h-.703a1.044 1.044 0 1 1 0-2.088h2.77a2 2 0 0 1 2 2v3.737c-1.345 1.15-3.277 2.126-5.697 2.126m16.859-.019c-3.551 0-5.815-2.049-5.815-6.01v-6.663a1.2 1.2 0 1 1 2.4 0v6.566c0 2.536 1.308 3.902 3.454 3.902 2.127 0 3.434-1.288 3.434-3.805v-6.663a1.2 1.2 0 1 1 2.4 0v6.546c0 4.078-2.302 6.127-5.873 6.127m11.61-2.215V37.288a1.2 1.2 0 1 1 2.4 0v8.273a2 2 0 0 0 2 2h4.087a1.093 1.093 0 0 1 0 2.185h-6.487a2 2 0 0 1-2-2m13.838.874 5.073-11.61a1.7 1.7 0 0 1 3.114 0l5.057 11.574a.83.83 0 0 1-.76 1.162c-.769 0-1.462-.46-1.76-1.169l-.38-.903a2 2 0 0 0-1.843-1.225h-3.808a2 2 0 0 0-1.84 1.216l-.405.95a1.86 1.86 0 0 1-1.71 1.131.804.804 0 0 1-.738-1.126m4.25-4.298H94.6l-2.361-5.463zm14.282 4.224V36.088h6.088c1.717 0 3.064.507 3.942 1.366.722.741 1.131 1.756 1.131 2.946v.039c0 2.244-1.346 3.59-3.258 4.137l2.866 4.019a.729.729 0 0 1-.593 1.151h-.378a2 2 0 0 1-1.634-.847l-2.161-3.066a2 2 0 0 0-1.635-.848h-.465c-.83 0-1.503.673-1.503 1.503v2.058a1.2 1.2 0 1 1-2.4 0m2.4-5.687h3.513c1.717 0 2.81-.898 2.81-2.283v-.04c0-1.463-1.054-2.263-2.83-2.263h-3.493z"/></g></svg>