<svg xmlns="http://www.w3.org/2000/svg" fill="#fff" viewBox="0 0 1266 1266"><path fill="currentColor" d="M1080.85 185.152C966.38 70.685 808.13 0 633 0S299.62 70.685 185.152 185.152C70.685 299.62 0 457.87 0 633c0 349.205 283.267 633 633 633 175.13 0 333.38-70.69 447.85-185.68C1195.31 965.852 1266 807.602 1266 633s-70.69-333.38-185.15-447.848M726.895 865.1 605.043 986.425C561.26 1030.74 502.708 1055 439.935 1055c-62.772 0-120.798-24.26-164.58-68.575-90.73-90.73-90.73-238.43 0-329.688l60.662-60.662c11.605-11.605 26.903-17.935 43.256-17.935 16.352 0 31.65 6.33 42.727 17.935 11.605 11.605 17.935 26.902 17.935 43.255 0 16.352-6.33 31.123-17.935 42.728l-60.663 61.19c-43.255 43.255-43.255 113.939 0 157.194 21.1 21.1 49.058 32.706 78.598 32.706s58.025-11.606 79.125-32.706L640.912 778.59c43.255-43.255 43.255-113.94 0-157.195-11.605-11.605-17.934-26.902-17.934-43.255 0-16.352 6.329-31.65 17.934-43.255 11.078-11.077 26.376-17.407 42.728-17.407 16.353 0 31.65 6.33 43.255 17.407 90.73 91.258 90.73 238.957 0 330.215m263.75-264.277-81.235 81.235c-11.605 11.605-26.902 17.935-42.727 17.935s-31.651-6.33-43.256-17.935-17.934-26.903-17.934-42.728 6.329-31.65 17.934-43.255l81.235-81.235c43.255-43.255 43.255-113.94 0-157.723-21.1-21.1-49.057-32.177-78.597-32.177s-58.025 11.077-79.125 32.177L625.088 478.97c-43.255 43.782-43.255 114.467 0 157.722 23.737 23.738 23.737 62.245 0 85.983-11.078 11.605-26.376 17.935-42.728 17.935-16.353 0-31.65-6.33-43.255-17.935-90.73-90.73-90.73-238.958 0-329.688l121.852-121.852c43.783-43.783 102.335-68.048 165.108-68.048 62.772 0 120.798 24.265 164.58 68.048 90.735 90.73 90.735 238.958 0 329.688"/></svg>