<svg width="1em" height="1em" viewBox="0 0 23 23" fill="none" xmlns="http://www.w3.org/2000/svg">
  <path d="M22.707 19.293L17.832 14.418C18.9057 12.5187 19.2548 10.2947 18.8146 8.1578C18.3744 6.02091 17.1748 4.11592 15.4378 2.79561C13.7009 1.47531 11.5444 0.829142 9.36763 0.976776C7.19087 1.12441 5.14135 2.05584 3.59861 3.59858C2.05587 5.14132 1.12444 7.19084 0.976806 9.3676C0.829172 11.5444 1.47534 13.7009 2.79564 15.4378C4.11595 17.1747 6.02094 18.3744 8.15783 18.8146C10.2947 19.2548 12.5187 18.9057 14.418 17.832L19.293 22.707C19.4806 22.8945 19.7349 22.9998 20 22.9998C20.2652 22.9998 20.5195 22.8945 20.707 22.707L22.707 20.707C22.8945 20.5195 22.9998 20.2652 22.9998 20C22.9998 19.7348 22.8945 19.4805 22.707 19.293ZM3.00003 10C3.00003 8.61553 3.41057 7.26215 4.17974 6.11101C4.94891 4.95986 6.04216 4.06265 7.32124 3.53284C8.60033 3.00303 10.0078 2.8644 11.3657 3.1345C12.7235 3.4046 13.9708 4.07128 14.9498 5.05025C15.9287 6.02922 16.5954 7.2765 16.8655 8.63437C17.1356 9.99223 16.997 11.3997 16.4672 12.6788C15.9374 13.9579 15.0402 15.0511 13.889 15.8203C12.7379 16.5895 11.3845 17 10 17C8.14416 16.9979 6.36492 16.2597 5.05262 14.9474C3.74032 13.6351 3.00215 11.8559 3.00003 10Z" fill="currentColor"/>
</svg>
