<svg xmlns="http://www.w3.org/2000/svg" width="734" height="534" fill="none"><path fill="currentColor" fill-rule="evenodd" d="M100.333 67C81.924 67 67 81.924 67 100.333v333.334C67 452.077 81.924 467 100.333 467h333.334c18.41 0 33.333-14.923 33.333-33.333v-35.524c0-39.936 44.507-63.756 77.737-41.603L667 438.05V95.95l-122.263 81.511C511.507 199.612 467 175.793 467 135.858v-35.525C467 81.924 452.077 67 433.667 67zm-100 33.333c0-55.228 44.772-100 100-100h333.334c55.23 0 100 44.772 100 100v4.383l96.353-64.235c44.303-29.536 103.647 2.223 103.647 55.47V438.05c0 53.247-59.344 85.007-103.647 55.47l-96.353-64.237v4.384c0 55.23-44.77 100-100 100H100.333c-55.228 0-100-44.77-100-100z" clip-rule="evenodd"/></svg>