<svg width="1em" height="1em" viewBox="0 0 24 24" fill="none" xmlns="http://www.w3.org/2000/svg">
  <path d="M10.3358 13.9358L13.6642 12.0047L10.3358 10.0642V13.9358Z" fill="currentColor"/>
  <path d="M12 0C9.62663 0 7.30655 0.703788 5.33316 2.02236C3.35977 3.34094 1.8217 5.21509 0.913451 7.4078C0.00519938 9.60051 -0.232441 12.0133 0.230582 14.3411C0.693605 16.6689 1.83649 18.8071 3.51472 20.4853C5.19295 22.1635 7.33115 23.3064 9.65892 23.7694C11.9867 24.2324 14.3995 23.9948 16.5922 23.0866C18.7849 22.1783 20.6591 20.6402 21.9776 18.6668C23.2962 16.6935 24 14.3734 24 12C24 8.8174 22.7357 5.76516 20.4853 3.51472C18.2348 1.26428 15.1826 0 12 0ZM18.3158 14.1237C18.316 14.4375 18.2544 14.7484 18.1344 15.0384C18.0144 15.3284 17.8385 15.5919 17.6166 15.8139C17.3948 16.0359 17.1314 16.2121 16.8414 16.3322C16.5515 16.4524 16.2407 16.5142 15.9268 16.5142H8.07316C7.75931 16.5142 7.44853 16.4524 7.15859 16.3322C6.86864 16.2121 6.60522 16.0359 6.38336 15.8139C6.16151 15.5919 5.98557 15.3284 5.86561 15.0384C5.74565 14.7484 5.68401 14.4375 5.68422 14.1237V9.87632C5.68401 9.56246 5.74565 9.25164 5.86561 8.96162C5.98557 8.6716 6.16151 8.40806 6.38336 8.18605C6.60522 7.96405 6.86864 7.78794 7.15859 7.66779C7.44853 7.54763 7.75931 7.48579 8.07316 7.48579H15.9268C16.2407 7.48579 16.5515 7.54763 16.8414 7.66779C17.1314 7.78794 17.3948 7.96405 17.6166 8.18605C17.8385 8.40806 18.0144 8.6716 18.1344 8.96162C18.2544 9.25164 18.316 9.56246 18.3158 9.87632V14.1237Z" fill="currentColor"/>
</svg>
