<svg xmlns="http://www.w3.org/2000/svg" width="564" height="458" version="1.0" viewBox="0 0 422.88 343.5"><defs><clipPath id="a"><path d="M127.297 75.375H347.57v192.152H127.297Zm0 0"/></clipPath><clipPath id="b"><path d="M75.871 104h187.465v164.031H75.87Zm0 0"/></clipPath><clipPath id="c"><path d="M105 169.023h210v87.875H105Zm0 0"/></clipPath></defs><g clip-path="url(#a)"><path fill="#c30f2e" d="M237.434 75.379 347.57 267.527H127.297z"/></g><g clip-path="url(#b)"><path fill="#dd0330" d="m169.602 104 93.73 164.031H75.872z"/></g><path fill="#fff" d="M328.895 218.969H95.152v-2.567h233.743z"/><g clip-path="url(#c)"><path fill="#fff" d="M292.785 256.512c-.914 0-1.773-.38-2.492-1.098-4.293-4.312-4.48-21.848-4.273-48.11.117-14.35.273-34.007-2.016-35.558-2.234.926-2.457 17.164-2.602 27.914-.172 12.508-.347 25.45-2.379 32.04-.605 1.952-1.386 3.741-2.957 3.597-2.214-.195-2.93-3.692-4.582-17.488-.687-5.73-1.398-11.653-2.23-13.946q-.163-.432-.285-.699c-.887 2.004-1.91 7.512-2.621 11.336-.985 5.281-1.914 10.27-3.078 12.445-.899 1.672-2.325 3.852-4.317 3.43-2.715-.57-3.527-6.043-3.77-9.254 0-27.016-3.535-30.16-4.242-30.516l-.113.086-.172-.039c-2.523 1.102-2.66 9.864-2.789 18.336-.101 6.215-.21 13.258-1.117 19.848-1.176 8.543-2.598 10.191-4.367 10.09-4.074-.278-4.192-14.309-4.192-15.906 0-.5.012-1.09.028-1.743.078-3.265.219-9.34-1.79-11.254-.265-.253-.64-.546-.933-.464-1.43.359-2.914 5.004-3.406 6.53-.156.485-.281.884-.387 1.157-.082.227-.187.547-.312.934-1.082 3.285-2.313 6.562-4.414 7.37-.778.302-1.59.235-2.352-.195-1.012-.574-1.836-1.746-2.605-3.695-.422-1.078-.782-2.172-1.149-3.27-.445-1.34-.902-2.726-1.469-4.042-.445-1.024-1.554-1.485-2.968-1.235-2.938.524-3.43 3.492-3.844 7.961-.074.778-.145 1.54-.242 2.258-.012.211-.532 6.77-.864 8.856-.918 5.718-2.125 7.972-4.129 7.808-4.945-.422-7.214-22.113-7.093-31.277.093-6.996-1.172-9.551-1.93-9.957-.078-.035-.2-.102-.488.101-.895.606-1.692 2.492-1.446 4.473 2.723 21.566.715 46.266-4.203 51.828-1.55 1.75-3.66 1.727-5.129.25-4.296-4.312-4.476-21.848-4.273-48.11.117-14.35.27-34.007-2.016-35.558-2.234.926-2.453 17.164-2.601 27.914-.172 12.508-.348 25.45-2.383 32.04-.606 1.952-1.387 3.741-2.953 3.597-2.219-.195-2.93-3.692-4.586-17.488-.688-5.73-1.399-11.653-2.23-13.946q-.158-.432-.286-.699c-.883 2.004-1.906 7.512-2.617 11.336-.984 5.281-1.914 10.27-3.082 12.445-.898 1.672-2.324 3.852-4.312 3.43-2.715-.57-3.528-6.043-3.77-9.254-.004-27.016-3.535-30.16-4.242-30.516l-.113.086-.176-.039c-2.52 1.102-2.656 9.864-2.79 18.336-.097 6.215-.206 13.258-1.113 19.848-1.175 8.543-2.585 10.207-4.363 10.09-4.082-.278-4.2-14.309-4.2-15.906 0-.5.017-1.09.032-1.743.078-3.265.219-9.34-1.789-11.254-.266-.253-.64-.546-.933-.464-1.43.359-2.918 5.004-3.403 6.53-.156.481-.289.884-.387 1.157-.085.223-.19.543-.316.93-1.082 3.285-2.312 6.566-4.41 7.375-.781.3-1.598.234-2.356-.196-1.011-.574-1.84-1.746-2.605-3.695-.422-1.078-.785-2.172-1.148-3.27-.446-1.34-.907-2.726-1.473-4.042-.442-1.024-1.555-1.485-2.969-1.235-3.383.602-4.183 4.797-4.828 9.805l-.113.89-2.559-.34.121-.874c.559-4.39 1.41-11.028 6.93-12.004 2.598-.461 4.867.617 5.781 2.742.613 1.422 1.094 2.86 1.555 4.254.344 1.05.695 2.101 1.101 3.14.715 1.813 1.27 2.282 1.477 2.395 1.293-.402 2.613-4.422 3.05-5.746.137-.426.255-.777.348-1.027.09-.246.207-.606.348-1.04 1.164-3.64 2.625-7.581 5.219-8.238.793-.203 2.02-.175 3.351 1.098 2.828 2.7 2.68 9 2.582 13.172-.015.625-.03 1.195-.03 1.68 0 6.656.987 11.308 1.741 12.906.391-.817 1.059-2.793 1.696-7.438.882-6.437.996-13.398 1.09-19.539.171-10.867.292-18.746 4.226-20.597.586-.36 1.559-.555 2.586-.036 3.805 1.914 5.652 12.614 5.652 32.707.239 3.106 1.075 6.375 1.762 6.844.004-.07.563-.414 1.48-2.133.981-1.824 1.958-7.074 2.817-11.703 1.902-10.203 2.766-13.785 5.016-13.972 1.714-.168 2.507 2.011 2.84 2.93.937 2.57 1.632 8.37 2.367 14.515.574 4.766 1.39 11.57 2.222 14.324a16 16 0 0 0 .301-.887c1.926-6.238 2.102-18.984 2.27-31.316.234-17.129.535-27.742 3.66-29.957.695-.492 1.543-.613 2.37-.336 3.661 1.215 3.942 11.945 3.735 37.996-.148 18.89-.332 42.402 3.528 46.277.335.34.574.34.66.34.18 0 .437-.172.71-.48 3.907-4.418 6.38-27.617 3.579-49.805-.348-2.762.719-5.664 2.539-6.914 1.004-.691 2.16-.781 3.16-.246 2.277 1.21 3.383 5.332 3.293 12.254-.16 12.086 2.742 26.23 4.637 28.488.3-.5.894-1.87 1.464-5.46.32-1.985.848-8.653.856-8.72.094-.753.164-1.484.23-2.226.391-4.164.872-9.344 5.957-10.246 2.594-.461 4.864.613 5.782 2.742.613 1.422 1.09 2.86 1.55 4.254.352 1.05.704 2.101 1.11 3.14.71 1.813 1.27 2.282 1.473 2.395 1.292-.402 2.617-4.422 3.05-5.742.14-.426.258-.781.348-1.031.094-.243.207-.606.344-1.04 1.168-3.64 2.629-7.581 5.226-8.238.785-.203 2.016-.175 3.348 1.098 2.828 2.7 2.68 9 2.586 13.172-.02.625-.035 1.195-.035 1.68 0 6.656.988 11.308 1.742 12.906.387-.817 1.055-2.793 1.7-7.438.882-6.437.987-13.398 1.089-19.539.168-10.867.289-18.746 4.223-20.597.586-.36 1.558-.555 2.59-.036 3.8 1.914 5.652 12.614 5.652 32.707.238 3.106 1.074 6.375 1.758 6.844.007-.07.558-.414 1.484-2.133.98-1.824 1.953-7.074 2.816-11.703 1.895-10.203 2.762-13.785 5.012-13.972 1.719-.168 2.512 2.011 2.844 2.93.933 2.57 1.629 8.37 2.371 14.515.566 4.766 1.383 11.57 2.219 14.324.086-.242.187-.531.297-.887 1.925-6.238 2.097-18.984 2.27-31.316.23-17.129.534-27.742 3.66-29.957a2.6 2.6 0 0 1 2.37-.336c3.664 1.215 3.946 11.945 3.735 37.996-.149 18.89-.332 42.402 3.523 46.277.344.34.578.34.668.34.176 0 .434-.172.703-.48 3.914-4.418 6.383-27.617 3.582-49.805-.363-2.89.457-5.805 1.953-6.926.754-.57 1.672-.687 2.516-.332 2.18.93 3.656 4.914 4.516 12.188.36 3.047.68 6.34.988 9.59.68 7.093 1.602 16.652 2.848 18.754.382-.489 1.164-1.809 2.324-5.348l2.45.8c-1.802 5.473-3.212 7.536-5.048 7.325-2.855-.316-3.68-6.086-5.137-21.285-.308-3.235-.625-6.508-.984-9.54-1.094-9.277-2.953-10.116-2.973-10.124-.363.183-1.207 2.113-.894 4.574 2.715 21.566.715 46.27-4.207 51.828-.793.895-1.684 1.348-2.637 1.348"/></g></svg>