<svg width="721" height="600" viewBox="0 0 721 600" fill="none" xmlns="http://www.w3.org/2000/svg">
<g clip-path="url(#clip0_333_1114)">
<path opacity="0.25" d="M331.498 451.59L344.248 444.228C345.583 443.457 347.224 443.457 348.56 444.228L361.31 451.59C364.187 453.251 364.187 457.397 361.31 459.058L348.56 466.419C347.224 467.19 345.583 467.19 344.248 466.419L331.498 459.058C328.621 457.397 328.621 453.251 331.498 451.59Z" fill="url(#paint0_linear_333_1114)"/>
<path opacity="0.25" d="M108.034 549.777L144.417 528.775C146.231 527.725 148.47 527.725 150.284 528.775L186.66 549.777C190.567 552.036 190.567 557.677 186.66 559.936L150.284 580.945C148.47 581.994 146.231 581.994 144.417 580.945L108.034 559.936C104.127 557.677 104.127 552.036 108.034 549.777Z" fill="url(#paint1_linear_333_1114)"/>
<path opacity="0.25" d="M272.842 522.901L343.47 482.126C345.283 481.076 347.522 481.076 349.336 482.126L419.957 522.901C423.864 525.16 423.864 530.801 419.957 533.06L349.336 573.842C347.522 574.892 345.283 574.892 343.47 573.842L272.842 533.06C268.935 530.801 268.935 525.16 272.842 522.901Z" fill="url(#paint2_linear_333_1114)"/>
<path opacity="0.25" d="M164.809 419.538L201.192 398.536C203.006 397.486 205.245 397.486 207.059 398.536L243.436 419.538C247.343 421.797 247.343 427.438 243.436 429.697L207.059 450.706C205.245 451.756 203.006 451.756 201.192 450.706L164.809 429.697C160.902 427.438 160.902 421.797 164.809 419.538Z" fill="url(#paint3_linear_333_1114)"/>
<path opacity="0.25" d="M570.426 555.511L587.774 545.498C589.588 544.448 591.827 544.448 593.641 545.498L610.982 555.511C614.889 557.77 614.889 563.411 610.982 565.67L593.641 575.682C591.827 576.732 589.588 576.732 587.774 575.682L570.426 565.67C566.519 563.411 566.519 557.77 570.426 555.511Z" fill="url(#paint4_linear_333_1114)"/>
<path opacity="0.25" d="M446.055 551.87L463.403 541.857C465.217 540.807 467.456 540.807 469.27 541.857L486.611 551.87C490.518 554.129 490.518 559.77 486.611 562.029L469.27 572.041C467.456 573.091 465.217 573.091 463.403 572.041L446.055 562.029C442.148 559.77 442.148 554.129 446.055 551.87Z" fill="url(#paint5_linear_333_1114)"/>
<path opacity="0.25" d="M169.313 480.658L186.661 470.645C188.475 469.595 190.714 469.595 192.528 470.645L209.869 480.658C213.776 482.917 213.776 488.558 209.869 490.817L192.528 500.829C190.714 501.879 188.475 501.879 186.661 500.829L169.313 490.817C165.406 488.558 165.406 482.917 169.313 480.658Z" fill="url(#paint6_linear_333_1114)"/>
<path opacity="0.1" d="M240.02 362.525L631.22 588.386L714.664 541.558L323.463 315.71L240.02 362.525Z" fill="url(#paint7_linear_333_1114)"/>
<path d="M426.794 403.459L362.033 412.681C379.999 410.123 395.759 400.171 408.117 383.999L472.878 374.777C460.519 390.948 444.76 400.901 426.794 403.459Z" fill="url(#paint8_linear_333_1114)"/>
<path d="M437.956 267.6C437.87 268.244 437.79 268.902 437.717 269.56C441.73 234.472 458.021 212.141 480.053 209.012L537.818 200.786L544.814 199.79C542.422 200.128 540.103 200.693 537.851 201.484C519.227 207.975 505.806 229.436 502.378 261.175H502.371L437.963 267.6H437.956Z" fill="url(#paint9_linear_333_1114)"/>
<path d="M437.443 272.051C437.53 271.214 437.616 270.384 437.716 269.56C437.623 270.384 437.53 271.208 437.443 272.051Z" fill="url(#paint10_linear_333_1114)"/>
<path d="M603.766 433.179L539.006 442.401C529.93 443.69 519.884 441.73 509.326 436.062C503.593 432.986 498.011 428.973 492.656 424.196L554.945 412.681C561.038 418.495 567.463 423.279 574.074 426.834C584.631 432.508 594.677 434.474 603.76 433.179H603.766Z" fill="url(#paint11_linear_333_1114)"/>
<path d="M554.945 412.681L492.663 424.189C462.426 397.154 439.477 345.303 436.978 295.798C436.832 292.721 436.746 289.672 436.759 286.629C436.772 279.925 437.178 273.566 437.955 267.606L502.377 261.175C501.812 266.311 501.52 271.732 501.513 277.4C501.427 323.71 520.263 373.601 546.966 404.303C549.564 407.286 552.221 410.09 554.952 412.681H554.945Z" fill="url(#paint12_linear_333_1114)"/>
<path d="M477.343 143.766L412.589 152.982C395.493 108.406 370.525 68.8865 341.609 42.5159C331.969 33.7323 321.903 26.4038 311.531 20.8294C293.3 11.0426 275.958 7.64741 260.305 9.8732L325.059 0.657764C340.725 -1.57467 358.067 1.81385 376.285 11.6007C380.537 13.8863 384.736 16.4576 388.882 19.3212C393.008 22.1649 397.075 25.281 401.074 28.6496C403.672 30.8355 406.243 33.141 408.775 35.5396C410.044 36.7355 411.32 37.9647 412.582 39.2271H412.595C438.86 65.4183 461.49 102.42 477.336 143.766H477.343Z" fill="url(#paint13_linear_333_1114)"/>
<path d="M477.343 143.766L412.589 152.982C395.493 108.406 370.525 68.8866 341.609 42.5159L401.081 28.6562C403.679 30.8421 406.25 33.1477 408.782 35.5462C410.051 36.7422 411.326 37.9713 412.589 39.2337H412.602C438.866 65.4249 461.496 102.426 477.343 143.773V143.766Z" fill="url(#paint14_linear_333_1114)"/>
<path d="M405.407 318.76L364.897 324.534L340.653 327.982C331.577 329.277 321.531 327.317 310.967 321.643C282.005 306.083 256.976 266.822 245.336 223.29C241.004 207.065 238.519 190.229 238.406 173.824C238.393 173.279 238.393 172.728 238.393 172.196C238.472 127.362 256.279 98.2005 281.686 94.5795L346.453 85.3574C321.033 88.9718 303.233 118.133 303.146 162.974C303.053 220.566 332.201 283.705 369.336 308.561H369.349C371.455 309.976 373.568 311.258 375.714 312.415C386.271 318.082 396.317 320.042 405.4 318.753L405.407 318.76Z" fill="url(#paint15_linear_333_1114)"/>
<path d="M369.349 308.568L364.897 324.534L340.653 327.982C331.577 329.277 321.531 327.317 310.967 321.643C282.005 306.083 256.976 266.822 245.336 223.29C241.004 207.065 238.519 190.229 238.406 173.824C238.393 173.279 238.393 172.728 238.393 172.196L303.146 162.974C303.053 220.566 332.201 283.705 369.336 308.561L369.349 308.568Z" fill="url(#paint16_linear_333_1114)"/>
<path d="M509.879 135.255C495.216 127.375 481.117 123.648 468.001 123.654C446.155 123.668 427.04 134.066 412.589 152.982C395.494 108.406 370.525 68.8866 341.61 42.5159C331.969 33.7324 321.903 26.4039 311.532 20.8294C242.273 -16.3712 185.778 38.8151 185.578 143.833C185.565 146.623 185.612 149.427 185.691 152.231C185.731 153.825 185.784 155.433 185.857 157.048C185.917 158.609 185.99 160.177 186.083 161.758C191.744 260.876 244.592 364.923 309.199 400.855L310.814 401.739C329.032 411.512 346.367 414.901 362.02 412.681C379.98 410.117 395.74 400.164 408.111 383.999L409.194 386.783C421.991 419.385 439 449.158 458.66 472.904C474.107 491.568 491.196 506.504 509.175 516.157C576.401 552.268 631.607 501.314 634.949 402.23C635.055 399.247 635.108 396.224 635.115 393.161C635.314 288.137 579.125 172.449 509.873 135.248L509.879 135.255ZM383.315 264.404C380.332 296.695 367.203 318.746 348.752 325.876C337.716 330.141 324.78 329.052 310.973 321.643C271.188 300.276 238.851 234.2 238.413 173.771C238.399 173.253 238.399 172.721 238.399 172.196C238.512 111.343 271.248 79.3777 311.379 100.918C351.503 122.472 384.066 189.511 383.953 250.365C383.94 255.235 383.72 259.919 383.315 264.404ZM509.328 436.062C503.594 432.986 498.006 428.973 492.664 424.189V424.176C462.427 397.154 439.478 345.297 436.98 295.791C436.834 292.715 436.747 289.665 436.761 286.622C436.761 284.436 436.814 282.283 436.893 280.184C437.073 275.825 437.425 271.626 437.956 267.606C442.335 233.642 458.434 212.088 480.054 209.012L480.067 208.998C489.143 207.716 499.182 209.676 509.74 215.344C549.864 236.897 582.427 303.937 582.307 364.79C582.194 425.638 549.459 457.609 509.328 436.056V436.062Z" fill="url(#paint17_linear_333_1114)"/>
<path d="M699.881 383.939C699.868 387.254 699.821 390.523 699.695 393.739C699.257 405.725 698.061 417 696.16 427.505C695.669 430.288 695.117 433.019 694.526 435.684C683.909 483.322 658.289 513.174 625.168 517.885L560.414 527.1C601.694 521.22 631.327 476.299 634.788 406.516C635.008 402.157 635.121 397.712 635.134 393.168C635.333 288.144 579.144 172.456 509.892 135.255C495.215 127.375 481.116 123.648 468.014 123.654C464.844 123.654 461.722 123.874 458.672 124.312L469.342 122.791L523.426 115.09C539.093 112.858 556.434 116.259 574.652 126.046C643.911 163.233 700.087 278.921 699.888 383.946L699.881 383.939Z" fill="url(#paint18_linear_333_1114)"/>
<path d="M379.089 366.02L362.026 412.681C346.373 414.901 329.038 411.512 310.82 401.739L309.205 400.855C244.598 364.917 191.743 260.869 186.089 161.758C185.996 160.177 185.923 158.609 185.863 157.048C185.79 155.433 185.737 153.825 185.697 152.231L186.049 151.334L196.062 177.485C203.025 198.567 209.178 181.565 238.399 172.203C238.279 233.05 270.835 300.096 310.966 321.65C324.726 329.032 337.609 330.135 348.625 325.929C348.758 325.962 348.878 325.995 349.01 326.028L379.706 346.851C385.779 354 381.886 357.077 379.089 366.026V366.02Z" fill="url(#paint19_linear_333_1114)"/>
<path d="M383.946 250.365C384.059 189.511 351.503 122.472 311.372 100.918L297.639 76.4874C287.745 60.4551 289.606 53.6847 308.01 49.6584L341.61 42.5093C370.518 68.8799 395.494 108.399 412.589 152.975C398.995 176.123 390.212 201.783 386.777 228.406L383.946 250.358V250.365Z" fill="url(#paint20_linear_333_1114)"/>
<path d="M635.128 393.161C635.115 396.224 634.889 403.533 634.783 406.509L607.289 422.96C597.217 428.986 594.267 417.392 591.662 405.944L582.307 364.784C582.42 303.93 549.864 236.891 509.74 215.337C499.182 209.669 489.143 207.709 480.067 208.992L498.099 176.595C500.71 169.705 498.033 167.845 494.923 161.167L468.008 123.648C481.117 123.634 495.222 127.368 509.886 135.248C579.145 172.442 635.327 288.13 635.128 393.161Z" fill="url(#paint21_linear_333_1114)"/>
<path d="M699.882 383.939C699.869 387.254 634.783 406.516 634.783 406.516C635.002 402.157 635.115 397.712 635.128 393.168C635.327 288.144 579.138 172.456 509.886 135.255C495.209 127.375 481.11 123.648 468.008 123.654L469.343 122.791L523.427 115.09C539.094 112.858 556.435 116.259 574.653 126.046C643.912 163.233 700.088 278.921 699.889 383.946L699.882 383.939Z" fill="url(#paint22_linear_333_1114)"/>
<path d="M492.664 424.189L480.392 425.119C464.034 426.355 452.44 441.623 455.643 457.709L458.666 472.904C439.006 449.164 421.997 419.385 409.2 386.783L408.117 383.999C427.013 347.416 434.395 303.186 436.893 280.184C436.807 282.29 436.76 284.436 436.76 286.622C436.747 289.665 436.833 292.721 436.979 295.791C439.478 345.296 462.433 397.147 492.664 424.176V424.189Z" fill="url(#paint23_linear_333_1114)"/>
<path d="M269.001 417.631C269.001 417.631 266.164 419.671 266.649 423.505C267.134 427.338 263.898 426.495 263.898 426.495L261.6 418.229L269.001 417.631Z" fill="url(#paint24_linear_333_1114)"/>
<path d="M266.65 418.754C270.276 418.754 273.215 415.815 273.215 412.19C273.215 408.564 270.276 405.625 266.65 405.625C263.025 405.625 260.086 408.564 260.086 412.19C260.086 415.815 263.025 418.754 266.65 418.754Z" fill="url(#paint25_linear_333_1114)"/>
<path d="M280.994 432.753C280.994 432.753 278.25 436.634 278.264 438.986L268.184 451.211L262.291 438.986L268.503 459.357L278.563 443.75C278.822 443.351 279.38 443.291 279.712 443.63C280.974 444.919 283.924 446.866 286.09 439.776L281.047 436.474L280.988 432.753H280.994Z" fill="url(#paint26_linear_333_1114)"/>
<path d="M257.401 453.364L252.119 558.587L252.318 562.394L252.684 569.583H253.8L254.079 565.258L261.308 568.759L266.178 568.553L259.076 562.68L254.644 559.012L268.67 459.164L257.401 453.364Z" fill="url(#paint27_linear_333_1114)"/>
<path d="M252.318 562.394L252.69 569.583H253.8L254.079 565.258L261.308 568.759L266.178 568.56L259.075 562.68C258.059 563.73 256.106 564.195 252.318 562.401V562.394Z" fill="url(#paint28_linear_333_1114)"/>
<path d="M261.561 467.097L262.046 473.389L264.265 502.371L264.497 505.46L269.62 572.32L269.819 576.134L270.191 583.323H271.301L271.58 578.991L278.809 582.493L283.679 582.293L276.576 576.413L272.145 572.746L273.148 506.118L272.829 472.904L271.168 472.054L263.095 467.894L261.561 467.097Z" fill="url(#paint29_linear_333_1114)"/>
<path d="M274.145 443.716C273.255 446.726 272.723 451.005 274.417 459.044C274.417 459.044 282.058 479.156 273.653 556.946C273.653 556.946 258.232 546.202 248.539 544.847C248.539 544.847 243.396 481.528 251.635 464.532C255.628 456.307 257.834 444.979 255.07 439.324C253.123 435.338 255.316 428.235 257.149 423.624C258.139 421.146 260.93 419.917 263.421 420.86C267.9 422.548 271.089 427.186 273.122 431.265C275.049 435.132 275.368 439.57 274.138 443.716H274.145Z" fill="url(#paint30_linear_333_1114)"/>
<path d="M269.818 576.134L270.19 583.323H271.3L271.579 578.998L278.808 582.499L283.678 582.3L276.575 576.42C275.559 577.47 273.606 577.935 269.818 576.141V576.134Z" fill="url(#paint31_linear_333_1114)"/>
<path d="M272.708 485.734L270.071 486.153C269.386 486.259 268.861 486.817 268.795 487.508L272.07 487.833L272.715 485.734H272.708Z" fill="url(#paint32_linear_333_1114)"/>
<path d="M273.054 439.849L272.031 461.456L276.729 487.628L274.483 491.116C272.988 493.434 269.845 494.019 267.62 492.385L265.693 490.97C264.802 490.318 265.181 488.916 266.277 488.797L270.609 488.332L272.709 485.734L268.417 467.276C266.324 462.273 265.746 456.765 266.756 451.437L267.281 431.604C267.766 429.053 271.367 428.9 272.058 431.405C272.868 434.348 273.427 437.491 273.061 439.849H273.054Z" fill="url(#paint33_linear_333_1114)"/>
<path d="M253.766 459.357C257.401 453.364 255.986 459.031 262.291 455.324C268.603 451.61 266.789 440.275 263.361 434.567C259.939 428.86 263.653 425.717 266.802 419.884C267.108 419.326 267.965 419.086 268.164 418.588C267.467 418.694 265.892 417.964 265.128 417.133C264.145 416.043 263.859 414.688 264.503 414.11C265.148 413.525 266.463 413.931 267.453 415.014C267.759 415.352 267.998 415.718 268.164 416.07C268.324 414.96 268.244 414.037 268.058 413.313C267.938 412.821 267.879 412.329 267.879 411.838C267.879 411.592 267.892 411.353 267.925 411.107L266.975 409.911L268.031 410.529C268.138 410.03 268.33 409.545 268.589 409.094L267.898 407.938L268.968 408.522C268.968 408.522 268.968 408.516 268.968 408.509C269.526 407.765 270.064 407.831 270.018 406.968C270.377 407.386 270.583 407.632 270.583 407.632L271.387 407.047C270.643 402.423 266.125 402.496 260.098 404.642C254.657 406.576 250.418 415.691 248.989 431.385C247.567 447.085 253.766 459.377 253.766 459.377V459.357Z" fill="#1D1D1B"/>
<path d="M296.01 427.478L289.904 455.324L278.264 447.464L282.562 424.322L296.01 427.478Z" fill="url(#paint34_linear_333_1114)"/>
<path style="mix-blend-mode:multiply" opacity="0.7" d="M550.593 136.816C550.593 136.816 567.948 130.112 562.36 143.607C556.772 157.094 544.813 162.968 544.813 162.968C544.813 162.968 524.296 267.334 518.914 148.304L550.6 136.823L550.593 136.816Z" fill="url(#paint35_linear_333_1114)"/>
<path d="M502.378 261.175C502.312 261.813 502.245 262.464 502.186 263.115C502.245 262.471 502.305 261.819 502.372 261.175H502.378Z" fill="url(#paint36_linear_333_1114)"/>
<g opacity="0.4">
<path d="M127.667 368.139V266.224H111.993V368.139C111.96 369.328 112.717 370.518 114.279 371.421C117.328 373.182 122.325 373.182 125.375 371.421C126.936 370.518 127.693 369.328 127.66 368.139H127.667Z" fill="url(#paint37_linear_333_1114)"/>
<path d="M114.285 269.434C111.236 267.673 111.236 264.789 114.285 263.029C117.335 261.268 122.331 261.268 125.381 263.029C128.431 264.789 128.431 267.673 125.381 269.434C122.331 271.194 117.335 271.194 114.285 269.434Z" fill="url(#paint38_linear_333_1114)"/>
</g>
<g opacity="0.4">
<path d="M161.294 349.064V221.217H145.62V349.064C145.587 350.253 146.344 351.442 147.906 352.346C150.955 354.107 155.952 354.107 159.002 352.346C160.563 351.442 161.32 350.253 161.287 349.064H161.294Z" fill="url(#paint39_linear_333_1114)"/>
<path d="M147.912 224.419C144.863 222.659 144.863 219.775 147.912 218.015C150.962 216.254 155.958 216.254 159.008 218.015C162.058 219.775 162.058 222.659 159.008 224.419C155.958 226.18 150.962 226.18 147.912 224.419Z" fill="url(#paint40_linear_333_1114)"/>
</g>
<g opacity="0.4">
<path d="M59.2254 406.735V278.888H43.5518V406.735C43.5186 407.924 44.276 409.114 45.8374 410.017C48.8871 411.778 53.8835 411.778 56.9331 410.017C58.4945 409.114 59.252 407.924 59.2187 406.735H59.2254Z" fill="url(#paint41_linear_333_1114)"/>
<path d="M45.8439 282.091C42.7942 280.33 42.7942 277.446 45.8439 275.686C48.8936 273.925 53.89 273.925 56.9396 275.686C59.9893 277.446 59.9893 280.33 56.9396 282.091C53.89 283.851 48.8936 283.851 45.8439 282.091Z" fill="url(#paint42_linear_333_1114)"/>
</g>
<g opacity="0.4">
<path d="M24.2578 427.823V358.332H8.59089V427.823C8.55767 429.013 9.3151 430.202 10.8765 431.106C13.9261 432.866 18.9225 432.866 21.9722 431.106C23.5336 430.202 24.291 429.013 24.2578 427.823Z" fill="url(#paint43_linear_333_1114)"/>
<path d="M10.8771 361.535C7.82743 359.774 7.82743 356.891 10.8771 355.13C13.9268 353.369 18.9232 353.369 21.9728 355.13C25.0225 356.891 25.0225 359.774 21.9728 361.535C18.9232 363.296 13.9268 363.296 10.8771 361.535Z" fill="url(#paint44_linear_333_1114)"/>
</g>
<g opacity="0.4">
<path d="M94.0476 387.919V221.164H78.3741V387.919C78.3409 389.108 79.0983 390.297 80.6597 391.201C83.7093 392.962 88.7058 392.962 91.7554 391.201C93.3168 390.297 94.0742 389.108 94.041 387.919H94.0476Z" fill="url(#paint45_linear_333_1114)"/>
<path d="M80.6662 224.366C77.6165 222.606 77.6165 219.722 80.6662 217.961C83.7158 216.201 88.7122 216.201 91.7619 217.961C94.8116 219.722 94.8116 222.606 91.7619 224.366C88.7122 226.127 83.7158 226.127 80.6662 224.366Z" fill="url(#paint46_linear_333_1114)"/>
</g>
<path d="M539.571 90.4202L538.269 102.526C537.552 109.19 534.808 115.469 530.409 120.525L522.084 130.086L522.828 134.006L530.117 129.534C539.492 123.787 545.358 113.715 545.73 102.719L546.142 90.4202H539.565H539.571Z" fill="url(#paint47_linear_333_1114)"/>
<path d="M509.027 202.354L518.907 195.238L519.552 191.91L526.78 154.503L536.162 147.533L550.593 136.816V125.973L541.258 123.561L520.927 147.753L516.549 190.215L516.296 192.667L509.027 202.354Z" fill="url(#paint48_linear_333_1114)"/>
<path d="M550.595 136.81L526.776 154.51L521.434 182.189H514.172L518.909 148.297L541.26 123.561L550.595 125.973V136.81Z" fill="#1D1D1B"/>
<path d="M518.596 208.872L528.476 201.763L529.319 197.404L536.349 161.028L556.58 145.992C558.813 144.338 560.162 141.441 560.162 138.325V132.491L550.826 130.079L550.594 130.352L536.163 147.527L530.495 154.271L526.23 195.664L525.871 199.178L518.602 208.866L518.596 208.872Z" fill="url(#paint49_linear_333_1114)"/>
<path d="M556.581 145.992L536.343 161.028L530.994 188.707H523.732L528.476 154.815L538.416 143.813C541.393 140.517 542.721 135.634 541.931 130.903L541.552 128.631L550.827 130.079L560.162 132.484V138.318C560.162 141.434 558.807 144.331 556.581 145.985V145.992Z" fill="#1D1D1B"/>
<path d="M525.864 199.185L518.596 208.872L528.476 201.763L529.319 197.404L526.23 195.67L525.864 199.185Z" fill="#1D1D1B"/>
<path d="M518.907 195.238L519.552 191.91L516.549 190.215L516.296 192.667L509.027 202.354L518.907 195.238Z" fill="#1D1D1B"/>
<path d="M542.801 85.1381C540.735 86.0617 539.453 88.1612 539.572 90.4202L541.26 123.561C541.26 123.561 533.293 136.69 560.162 132.491L562.946 96.8983C563.139 94.4333 562.255 92.0015 560.521 90.2408L560.129 89.8488C555.611 85.3042 549.007 83.5103 542.808 85.1448L542.801 85.1381Z" fill="url(#paint50_linear_333_1114)"/>
<path d="M542.156 151.022L552.58 143.793L533.791 131.827L524.037 140.318L542.156 151.022Z" fill="url(#paint51_linear_333_1114)"/>
<path d="M520.357 120.997L524.038 140.318L542.157 151.022L539.752 132.099L520.357 120.997Z" fill="url(#paint52_linear_333_1114)"/>
<path d="M541.878 148.829L545.698 146.165C547.313 145.035 547.259 142.63 545.598 141.574L540.549 138.378L541.878 148.829Z" fill="url(#paint53_linear_333_1114)"/>
<path d="M522.085 130.079L525.54 139.507L524.032 140.318C524.032 140.318 520.351 140.052 520.005 132.956C519.952 131.807 521.314 131.601 522.078 130.079H522.085Z" fill="url(#paint54_linear_333_1114)"/>
<path d="M541.982 144.477C541.982 144.477 543.384 138.83 546.613 140.836C549.842 142.843 560.925 117.469 560.925 117.469L557.47 106.891C556.154 102.871 555.928 98.5726 556.812 94.4399C557.45 91.4501 561.649 91.2707 562.539 94.1941L569.436 116.857C569.436 116.857 559.224 141.128 547.504 145.281C545.597 145.959 543.956 144.995 541.996 144.484L541.982 144.477Z" fill="url(#paint55_linear_333_1114)"/>
<path d="M550.102 80.155L548.694 84.0352C548.694 84.0352 546.448 91.4899 548.082 91.7623C549.717 92.0348 549.311 88.0549 551.683 86.54C554.055 85.0252 555.045 79.0255 555.045 79.0255L550.095 80.155H550.102Z" fill="url(#paint56_linear_333_1114)"/>
<path d="M546.702 74.348C545.479 78.587 547.924 83.0054 552.163 84.2279C556.402 85.4504 560.82 83.0054 562.043 78.7664C563.265 74.5274 560.82 70.1091 556.581 68.8865C552.343 67.664 547.924 70.1091 546.702 74.348Z" fill="url(#paint57_linear_333_1114)"/>
<path d="M573.497 65.7571C571.696 72.1222 567.245 77.3578 561.644 79.8627C561.916 79.1783 562.049 78.7664 562.208 78.0754L556.661 76.627C556.661 76.627 555.126 78.4674 553.976 78.009C552.807 77.5439 551.983 79.6899 551.983 79.6899C551.983 79.6899 551.671 73.8962 549.824 77.5638C548.86 79.4707 549.87 81.0387 549.87 81.0387C549.87 81.0387 548.581 82.0619 546.721 81.5304C535.3 78.3013 528.948 65.4582 532.17 54.0568C535.399 42.6355 547.266 36.0046 558.68 39.2337C570.088 42.4628 576.733 54.3292 573.504 65.7439L573.497 65.7571Z" fill="#1D1D1B"/>
<path opacity="0.25" d="M4.69727 490.338C4.69727 490.338 12.7898 537.877 44.6353 534.03L145.806 474.691C158.117 468.001 156.27 456.101 144.357 448.733L131.919 441.039L4.69727 490.338Z" fill="url(#paint58_linear_333_1114)"/>
<path d="M107.934 401.539V389.075L140.317 407.771L129.427 414.057L107.934 401.539Z" fill="url(#paint59_linear_333_1114)"/>
<path d="M140.317 431.106V407.771L32.3828 470.087V507.474L128.145 452.188C135.679 447.836 140.317 439.803 140.317 431.106Z" fill="url(#paint60_linear_333_1114)"/>
<path d="M11.7867 495.587L32.3769 507.474V470.087L0 451.39V475.17C0 483.594 4.49145 491.381 11.7867 495.587Z" fill="url(#paint61_linear_333_1114)"/>
<path d="M0 451.39L107.934 389.075V401.539L10.7967 457.623L0 451.39Z" fill="url(#paint62_linear_333_1114)"/>
<path d="M129.428 414.057L107.934 401.539L10.7969 457.623L32.3771 470.087L129.428 414.057Z" fill="url(#paint63_linear_333_1114)"/>
<path d="M107.934 419.312C107.934 419.312 99.2434 394.975 81.0982 402.523C62.9464 410.07 85.8289 428.794 61.1126 416.11C36.3898 403.433 42.1967 456.686 42.1967 456.686L107.934 419.306V419.312Z" fill="url(#paint64_linear_333_1114)"/>
<path d="M115.9 414.781C115.9 414.781 114.956 382.776 100.353 384.391C85.742 386.005 105.774 435.85 85.3899 414.555C65.0057 393.261 70.7462 438.913 50.3885 433.318C30.0242 427.724 16.6495 395.646 15.3871 430.222C14.1248 464.798 32.2766 462.333 32.2766 462.333L115.913 414.781H115.9Z" fill="url(#paint65_linear_333_1114)"/>
<path d="M717.328 579.277C715.335 579.377 713.581 577.908 713.362 575.895L678.526 254.571C678.3 252.484 679.809 250.611 681.895 250.385C683.981 250.172 685.855 251.667 686.081 253.753L720.916 575.078C721.142 577.164 719.634 579.038 717.547 579.264C717.474 579.27 717.401 579.277 717.328 579.284V579.277Z" fill="url(#paint66_linear_333_1114)"/>
<path d="M641.917 312.421C640.615 312.268 639.426 311.445 638.868 310.149C638.037 308.222 638.927 305.99 640.854 305.159L684.094 286.556C686.021 285.725 688.254 286.615 689.084 288.542C689.915 290.469 689.024 292.701 687.098 293.532L643.857 312.136C643.226 312.408 642.555 312.494 641.917 312.421Z" fill="url(#paint67_linear_333_1114)"/>
<path d="M646.263 353.642C644.961 353.489 643.771 352.665 643.213 351.369C642.383 349.442 643.273 347.21 645.2 346.379L688.44 327.776C690.367 326.945 692.599 327.836 693.43 329.762C694.26 331.689 693.37 333.922 691.443 334.752L648.203 353.356C647.572 353.628 646.901 353.715 646.263 353.642Z" fill="url(#paint68_linear_333_1114)"/>
<path d="M650.581 395.32C649.279 395.168 648.09 394.344 647.532 393.048C646.701 391.121 647.592 388.889 649.518 388.058L692.758 369.455C694.685 368.624 696.918 369.514 697.748 371.441C698.579 373.368 697.688 375.6 695.762 376.431L652.521 395.035C651.89 395.307 651.219 395.393 650.581 395.32Z" fill="url(#paint69_linear_333_1114)"/>
<path d="M654.927 436.547C653.625 436.394 652.436 435.571 651.877 434.275C651.047 432.348 651.937 430.116 653.864 429.285L697.104 410.682C699.031 409.851 701.263 410.741 702.094 412.668C702.924 414.595 702.034 416.827 700.107 417.658L656.867 436.262C656.229 436.534 655.565 436.62 654.927 436.547Z" fill="url(#paint70_linear_333_1114)"/>
<path d="M659.253 478.219C657.951 478.067 656.762 477.243 656.204 475.947C655.373 474.02 656.263 471.788 658.19 470.957L701.424 452.354C703.35 451.523 705.583 452.414 706.413 454.34C707.244 456.267 706.354 458.5 704.427 459.33L661.193 477.934C660.562 478.206 659.891 478.292 659.253 478.219Z" fill="url(#paint71_linear_333_1114)"/>
<path d="M663.591 519.44C662.289 519.287 661.1 518.463 660.541 517.167C659.711 515.241 660.601 513.008 662.528 512.178L705.768 493.574C707.695 492.743 709.927 493.634 710.758 495.561C711.589 497.487 710.698 499.72 708.771 500.55L665.531 519.154C664.893 519.426 664.229 519.513 663.591 519.44Z" fill="url(#paint72_linear_333_1114)"/>
<path d="M667.876 561.783C666.574 561.63 665.385 560.806 664.827 559.511C663.996 557.584 664.886 555.351 666.813 554.521L710.053 535.917C711.98 535.087 714.213 535.977 715.043 537.904C715.874 539.831 714.983 542.063 713.056 542.894L669.816 561.497C669.185 561.77 668.514 561.856 667.876 561.783Z" fill="url(#paint73_linear_333_1114)"/>
<path style="mix-blend-mode:multiply" opacity="0.7" d="M330.946 315.923C345.902 312.487 356.818 304.445 355.329 297.961C353.839 291.477 340.507 289.007 325.551 292.443C310.595 295.88 299.678 303.921 301.168 310.405C302.658 316.889 315.99 319.36 330.946 315.923Z" fill="url(#paint74_linear_333_1114)"/>
<path d="M670.176 600C668.176 600.073 666.449 598.578 666.256 596.565L635.892 274.789C635.693 272.702 637.228 270.849 639.314 270.649C641.4 270.477 643.254 271.985 643.453 274.071L673.817 595.847C674.017 597.934 672.482 599.787 670.395 599.987C670.322 599.987 670.249 600 670.176 600Z" fill="url(#paint75_linear_333_1114)"/>
<path d="M349.163 282.423C347.269 283.798 345.92 285.526 343.595 285.612C329.277 286.15 311.218 279.034 311.218 279.034L310.062 265.115L309.397 257.135L308.952 251.846C308.866 250.783 309.225 249.893 309.823 249.255C310.48 248.551 311.424 248.146 312.387 248.146C313.43 248.146 314.48 248.617 315.184 249.674C316.899 252.239 318.161 255.062 318.932 258.019C318.945 258.045 318.945 258.059 318.945 258.059C319.35 259.627 319.623 261.228 319.749 262.856C319.756 262.995 319.769 263.142 319.776 263.281L320.48 274.383C320.48 274.383 340.04 284.011 342.651 280.489C345.256 276.968 349.156 282.423 349.156 282.423H349.163Z" fill="url(#paint76_linear_333_1114)"/>
<path d="M305.492 311.976L309.319 287.705L326.209 281.127L352.613 287.705L347.178 292.901L337.005 294.648C329.444 295.944 322.853 300.555 319.04 307.206L312.807 314.873L305.492 311.976Z" fill="#1D1D1B"/>
<path d="M319.038 312.8L320.42 324.534L324.759 312.8C324.759 312.8 353.348 299.884 355.043 296.701C356.464 294.03 356.298 279.446 340.944 292.907C325.589 306.368 319.031 312.8 319.031 312.8H319.038Z" fill="#1D1D1B"/>
<path d="M305.492 311.976L305.054 317.551C304.735 321.61 310.442 323.577 314.801 320.912L347.895 304.309L359.044 307.558L347.443 299.877L305.499 311.976H305.492Z" fill="#1D1D1B"/>
<path d="M333.111 282.503L313.73 299.505L331.424 304.548L349.157 288.024L333.111 282.503Z" fill="url(#paint77_linear_333_1114)"/>
<path d="M321.75 262.391L319.75 262.863L310.063 265.122L309.398 257.142L309.83 249.262C310.488 248.558 311.432 248.152 312.395 248.152C313.438 248.152 314.488 248.624 315.192 249.681C316.906 252.245 318.169 255.069 318.939 258.026C318.953 258.052 318.953 258.065 318.953 258.065L321.757 262.391H321.75Z" fill="url(#paint78_linear_333_1114)"/>
<path d="M309.884 248.152C309.884 248.152 309.937 248.152 309.964 248.152C314.063 248.139 317.545 251.156 318.242 255.195L321.75 275.566C321.75 275.566 339.809 278.722 310.602 296.701L294.436 270.131C293.048 267.64 292.815 264.67 293.785 261.992L294.005 261.394C296.556 254.464 302.609 249.415 309.884 248.152Z" fill="url(#paint79_linear_333_1114)"/>
<path d="M332.919 296.655C331.025 298.037 329.683 299.764 327.351 299.857C313.033 300.395 294.974 293.279 294.974 293.279L293.805 279.247L292.709 266.098C292.523 263.853 294.317 262.397 296.15 262.397C297.18 262.397 298.23 262.856 298.934 263.919C301.645 267.972 303.226 272.663 303.525 277.533L303.705 280.416H303.711L304.223 288.622C304.223 288.622 323.79 298.263 326.401 294.735C328.999 291.213 332.906 296.661 332.906 296.661L332.919 296.655Z" fill="url(#paint80_linear_333_1114)"/>
<path d="M306.427 244.996L306.248 250.385C306.248 250.385 312.268 257.467 310.44 258.006C308.613 258.544 304.859 254.624 301.936 253.228C299.013 251.827 301.464 244.299 301.464 244.299L306.427 244.996Z" fill="url(#paint81_linear_333_1114)"/>
<path d="M348.52 265.381L349.158 288.024L331.424 304.548L329.451 282.662L348.52 265.381Z" fill="url(#paint82_linear_333_1114)"/>
<path d="M303.71 280.41L293.804 279.24L291.711 278.995L292.701 266.092C292.515 263.846 294.309 262.391 296.143 262.391C297.172 262.391 298.222 262.849 298.926 263.912C301.637 267.965 303.219 272.656 303.518 277.526L303.697 280.41H303.71Z" fill="url(#paint83_linear_333_1114)"/>
<path d="M299.425 240.718C297.989 244.359 299.783 248.465 303.418 249.9C307.052 251.335 311.165 249.541 312.6 245.907C314.035 242.266 312.241 238.16 308.607 236.724C304.972 235.289 300.86 237.083 299.425 240.718Z" fill="url(#paint84_linear_333_1114)"/>
<path d="M313.092 243.036C313.092 243.036 342.367 240.299 342.327 227.974C342.287 215.649 298.568 238.266 298.568 238.266L299.02 244.412C299.02 244.412 300.356 239.94 301.758 241.641C303.159 243.335 301.412 246.511 301.412 246.511L304.276 242.638L313.086 243.05L313.092 243.036Z" fill="#1D1D1B"/>
<path opacity="0.4" d="M583.037 122.04L654.09 81.0121V19.474L583.037 60.5016V122.04Z" fill="url(#paint85_linear_333_1114)"/>
<path opacity="0.4" d="M654.09 9.21542V19.474L583.037 60.5016V50.2431L654.09 9.21542Z" fill="url(#paint86_linear_333_1114)"/>
<g opacity="0.4">
<path d="M590.492 101.35C590.551 101.35 590.611 101.337 590.671 101.303L599.262 96.3468C599.435 96.2472 599.488 96.0279 599.395 95.8618C599.295 95.689 599.076 95.6359 598.91 95.7289L590.319 100.685C590.146 100.785 590.093 101.004 590.186 101.17C590.252 101.283 590.372 101.35 590.492 101.35Z" fill="url(#paint87_linear_333_1114)"/>
</g>
<g opacity="0.4">
<path d="M590.492 103.483C590.551 103.483 590.611 103.469 590.671 103.436L599.262 98.4796C599.435 98.3799 599.488 98.1607 599.395 97.9946C599.295 97.8218 599.076 97.7687 598.91 97.8617L590.319 102.818C590.146 102.918 590.093 103.137 590.186 103.303C590.252 103.416 590.372 103.483 590.492 103.483Z" fill="url(#paint88_linear_333_1114)"/>
</g>
<g opacity="0.4">
<path d="M590.492 105.622C590.551 105.622 590.611 105.609 590.671 105.576L599.262 100.619C599.435 100.519 599.488 100.3 599.395 100.134C599.295 99.9612 599.076 99.9081 598.91 100.001L590.319 104.958C590.146 105.057 590.093 105.277 590.186 105.443C590.252 105.556 590.372 105.622 590.492 105.622Z" fill="url(#paint89_linear_333_1114)"/>
</g>
<g opacity="0.4">
<path d="M590.492 107.755C590.551 107.755 590.611 107.742 590.671 107.708L599.262 102.752C599.435 102.652 599.488 102.433 599.395 102.267C599.295 102.094 599.076 102.041 598.91 102.134L590.319 107.09C590.146 107.19 590.093 107.409 590.186 107.575C590.252 107.688 590.372 107.755 590.492 107.755Z" fill="url(#paint90_linear_333_1114)"/>
</g>
<g opacity="0.4">
<path d="M593.576 108.087C593.635 108.087 593.695 108.074 593.755 108.041L599.263 104.885C599.436 104.785 599.489 104.566 599.396 104.4C599.296 104.227 599.077 104.174 598.911 104.267L593.403 107.423C593.23 107.522 593.177 107.742 593.27 107.908C593.336 108.021 593.456 108.087 593.576 108.087Z" fill="url(#paint91_linear_333_1114)"/>
</g>
<path opacity="0.4" d="M599.441 90.4933C599.441 90.088 599.156 89.9219 598.803 90.1279L592.97 93.4965C592.618 93.6958 592.332 94.1941 592.332 94.5994V97.2305C592.332 97.6358 592.618 97.8019 592.97 97.5959L598.803 94.2274C599.156 94.028 599.441 93.5297 599.441 93.1244V90.4933Z" fill="url(#paint92_linear_333_1114)"/>
<g opacity="0.7">
<path opacity="0.4" d="M623.953 85.2976C624.803 85.2976 625.733 85.1116 626.763 84.693C631.946 82.5735 633.427 74.7533 634.856 67.1857C636.012 61.073 637.208 54.7611 640.317 53.4987C641.168 53.1532 641.885 53.2064 642.576 53.6582C646.496 56.2029 647.799 69.6971 647.965 74.6869C647.978 75.1653 648.383 75.544 648.868 75.5307C649.347 75.5174 649.725 75.1121 649.712 74.6271C649.646 72.7003 648.915 55.6979 643.533 52.1964C642.37 51.439 641.035 51.3327 639.673 51.8842C635.686 53.4987 634.457 59.99 633.155 66.8601C631.813 73.9627 630.418 81.3111 626.112 83.0785C622.285 84.6465 620.398 82.0353 618.212 79.0056C616.026 75.9759 613.302 72.202 608.206 75.2384C607.043 75.936 606.027 76.1486 605.103 75.8961C603.024 75.3247 601.442 72.4212 599.914 69.6108C598.24 66.5345 596.659 63.631 594.174 62.9866C592.984 62.6743 591.715 62.94 590.406 63.7706C590.001 64.0297 589.882 64.5679 590.134 64.9732C590.393 65.3784 590.931 65.498 591.337 65.2456C592.234 64.6742 593.018 64.4881 593.735 64.6742C595.489 65.1326 596.964 67.8301 598.386 70.4413C600.094 73.5707 601.854 76.813 604.651 77.5771C606.04 77.9558 607.535 77.6768 609.11 76.7333C612.658 74.6138 614.266 76.5008 616.81 80.0222C618.544 82.4207 620.617 85.291 623.973 85.291L623.953 85.2976Z" fill="url(#paint93_linear_333_1114)"/>
</g>
<path opacity="0.4" d="M647.565 48.7548C647.565 44.2035 644.336 42.3365 640.396 44.6155C636.456 46.8944 633.227 52.4821 633.227 57.0334C633.227 61.5846 636.456 63.4516 640.396 61.1727C644.336 58.8937 647.565 53.306 647.565 48.7548Z" fill="url(#paint94_linear_333_1114)"/>
<path opacity="0.4" d="M644.403 50.5819C644.403 48.0372 642.596 46.9941 640.39 48.2631C638.184 49.5321 636.377 52.6615 636.377 55.2129C636.377 57.7642 638.184 58.8007 640.39 57.5317C642.596 56.256 644.403 53.1333 644.403 50.5819Z" fill="url(#paint95_linear_333_1114)"/>
<path opacity="0.4" d="M642.35 51.7646C642.35 50.5221 641.466 50.0105 640.39 50.6351C639.313 51.2596 638.43 52.7811 638.43 54.0302C638.43 55.2793 639.313 55.7843 640.39 55.1597C641.466 54.5352 642.35 53.0137 642.35 51.7646Z" fill="url(#paint96_linear_333_1114)"/>
<path opacity="0.3" d="M115.902 205.078L116.499 213.104C116.759 216.566 117.981 219.277 119.543 219.848L123.17 221.17L119.543 222.493C117.981 223.064 116.752 225.775 116.499 229.236L115.902 237.263L115.304 229.236C115.044 225.775 113.822 223.064 112.261 222.493L108.633 221.17L112.261 219.848C113.822 219.277 115.051 216.566 115.304 213.104L115.902 205.078Z" fill="url(#paint97_linear_333_1114)"/>
<path opacity="0.3" d="M167.746 132.664L168.868 147.773C169.353 154.29 171.659 159.393 174.602 160.47L181.433 162.961L174.602 165.453C171.659 166.529 169.353 171.632 168.868 178.15L167.746 193.258L166.623 178.15C166.138 171.632 163.832 166.529 160.889 165.453L154.059 162.961L160.889 160.47C163.832 159.393 166.138 154.29 166.623 147.773L167.746 132.664Z" fill="url(#paint98_linear_333_1114)"/>
<path opacity="0.3" d="M88.6928 40.6356L89.8157 55.7444C90.3007 62.2623 92.6062 67.365 95.5496 68.4414L102.38 70.9329L95.5496 73.4245C92.6062 74.5009 90.3007 79.6036 89.8157 86.1215L88.6928 101.23L87.57 86.1215C87.0849 79.6036 84.7794 74.5009 81.836 73.4245L75.0059 70.9329L81.836 68.4414C84.7794 67.365 87.0849 62.2623 87.57 55.7444L88.6928 40.6356Z" fill="url(#paint99_linear_333_1114)"/>
<path opacity="0.1" d="M195.233 403.812C204.01 403.812 211.125 399.822 211.125 394.902C211.125 389.981 204.01 385.992 195.233 385.992C186.455 385.992 179.34 389.981 179.34 394.902C179.34 399.822 186.455 403.812 195.233 403.812Z" fill="url(#paint100_linear_333_1114)"/>
<path d="M174.389 346.546L174.993 347.609C178.747 354.22 180.016 361.953 178.581 369.421L175.877 383.474C174.94 388.351 177.199 393.281 181.505 395.752L181.544 395.779C185.132 397.838 189.551 397.832 193.138 395.759C197.424 393.281 199.676 388.364 198.739 383.5L196.049 369.521C194.6 361.993 195.902 354.193 199.723 347.549L200.301 346.546H174.389Z" fill="url(#paint101_linear_333_1114)"/>
<path d="M200.301 346.546C200.301 347.768 198.314 348.851 195.231 349.542C193.045 350.034 190.315 350.32 187.345 350.32C184.375 350.32 181.644 350.027 179.458 349.542C176.375 348.851 174.389 347.768 174.389 346.546C174.389 344.459 180.189 342.765 187.345 342.765C194.501 342.765 200.301 344.459 200.301 346.546Z" fill="url(#paint102_linear_333_1114)"/>
<path d="M195.232 349.502C195.232 349.502 195.232 349.529 195.232 349.535C193.046 350.027 190.316 350.313 187.346 350.313C184.376 350.313 181.645 350.02 179.459 349.535C179.459 349.522 179.459 349.509 179.459 349.502C179.459 348.233 182.994 347.203 187.346 347.203C191.698 347.203 195.232 348.233 195.232 349.502Z" fill="url(#paint103_linear_333_1114)"/>
<path d="M192.029 314.321C192.228 307.631 192.341 300.561 192.281 293.698L186.74 293.06L192.242 290.502C192.162 285.492 191.982 280.636 191.67 276.177L186.74 272.31L191.132 270.144C190.049 260.324 188.089 253.481 184.76 252.949C181.777 252.478 180.275 257.521 179.731 265.514L184.574 266.922L179.584 268.311C179.491 270.696 179.465 273.281 179.498 276.018L184.581 277.041L179.538 278.171C179.671 284.542 180.089 291.612 180.648 298.754L184.581 299.113L180.96 302.628C181.139 304.701 181.133 304.721 181.325 306.767L185.89 308.813L181.657 310.322C183.651 330.885 186.295 349.09 186.295 349.09L190.248 349.137C190.248 349.137 191.112 338.838 191.71 321.896L187.345 322.667L192.029 314.328V314.321Z" fill="url(#paint104_linear_333_1114)"/>
<path d="M188.049 349.13H182.628C182.628 349.13 181.106 344.685 179.013 337.968L183.498 336.838L178.123 335.078C175.791 327.437 172.974 317.617 170.775 308.136L177.226 306.103L169.891 304.169C166.708 289.353 165.459 276.231 170.502 274.769C174.063 273.732 177.053 279.725 179.485 288.715L174.389 293.02L180.635 293.313C182.083 299.611 182.967 304.488 183.977 311.631L180.11 315.198L184.654 316.414C185.066 319.484 185.173 320.314 185.505 323.211L181.877 325.829L185.976 327.085C187.378 339.463 188.049 349.137 188.049 349.137V349.13Z" fill="url(#paint105_linear_333_1114)"/>
<path d="M193.784 337.981C194.927 334.161 196.176 329.723 197.279 325.264L193.518 322.082L197.771 323.218C198.867 318.56 199.751 313.989 200.116 310.215L196.15 308.634H200.242C200.488 304.448 199.943 301.512 198.103 300.973C195.565 300.236 193.479 305.013 191.824 311.81L193.525 316.468L190.98 315.617C188.09 329.802 186.748 349.13 186.748 349.13H190.256C190.256 349.13 191.725 344.851 193.532 338.838L191.392 336.553L193.791 337.975L193.784 337.981Z" fill="url(#paint106_linear_333_1114)"/>
</g>
<defs>
<linearGradient id="paint0_linear_333_1114" x1="373.422" y1="326.965" x2="360.446" y2="388.59" gradientUnits="userSpaceOnUse">
<stop stop-color="#F6F6F6"/>
<stop offset="1" stop-color="#C9D6FF"/>
</linearGradient>
<linearGradient id="paint1_linear_333_1114" x1="311.83" y1="339.941" x2="89.6691" y2="630.211" gradientUnits="userSpaceOnUse">
<stop stop-color="#F6F6F6"/>
<stop offset="1" stop-color="#C9D6FF"/>
</linearGradient>
<linearGradient id="paint2_linear_333_1114" x1="434.282" y1="413.16" x2="212.121" y2="703.43" gradientUnits="userSpaceOnUse">
<stop stop-color="#F6F6F6"/>
<stop offset="1" stop-color="#C9D6FF"/>
</linearGradient>
<linearGradient id="paint3_linear_333_1114" x1="284.776" y1="319.232" x2="62.6155" y2="609.508" gradientUnits="userSpaceOnUse">
<stop stop-color="#F6F6F6"/>
<stop offset="1" stop-color="#C9D6FF"/>
</linearGradient>
<linearGradient id="paint4_linear_333_1114" x1="594.186" y1="556.042" x2="372.025" y2="846.312" gradientUnits="userSpaceOnUse">
<stop stop-color="#F6F6F6"/>
<stop offset="1" stop-color="#C9D6FF"/>
</linearGradient>
<linearGradient id="paint5_linear_333_1114" x1="513.998" y1="494.67" x2="291.838" y2="784.94" gradientUnits="userSpaceOnUse">
<stop stop-color="#F6F6F6"/>
<stop offset="1" stop-color="#C9D6FF"/>
</linearGradient>
<linearGradient id="paint6_linear_333_1114" x1="305.106" y1="334.799" x2="82.9456" y2="625.068" gradientUnits="userSpaceOnUse">
<stop stop-color="#F6F6F6"/>
<stop offset="1" stop-color="#C9D6FF"/>
</linearGradient>
<linearGradient id="paint7_linear_333_1114" x1="526.96" y1="330.759" x2="517.227" y2="354.539" gradientUnits="userSpaceOnUse">
<stop stop-color="#F6F6F6"/>
<stop offset="1" stop-color="#C9D6FF"/>
</linearGradient>
<linearGradient id="paint8_linear_333_1114" x1="619.129" y1="243.913" x2="501.447" y2="332.507" gradientUnits="userSpaceOnUse">
<stop stop-color="#F6F6F6"/>
<stop offset="1" stop-color="#C9D6FF"/>
</linearGradient>
<linearGradient id="paint9_linear_333_1114" x1="510.244" y1="278.895" x2="482.08" y2="213.277" gradientUnits="userSpaceOnUse">
<stop stop-color="#F6F6F6"/>
<stop offset="1" stop-color="#C9D6FF"/>
</linearGradient>
<linearGradient id="paint10_linear_333_1114" x1="438.294" y1="272.477" x2="437.237" y2="270.012" gradientUnits="userSpaceOnUse">
<stop stop-color="#F6F6F6"/>
<stop offset="1" stop-color="#C9D6FF"/>
</linearGradient>
<linearGradient id="paint11_linear_333_1114" x1="565.35" y1="468.612" x2="540.069" y2="409.712" gradientUnits="userSpaceOnUse">
<stop stop-color="#F6F6F6"/>
<stop offset="1" stop-color="#C9D6FF"/>
</linearGradient>
<linearGradient id="paint12_linear_333_1114" x1="571.15" y1="342.685" x2="514.954" y2="342.685" gradientUnits="userSpaceOnUse">
<stop stop-color="#1D4891"/>
<stop offset="1" stop-color="#182E65"/>
</linearGradient>
<linearGradient id="paint13_linear_333_1114" x1="338.327" y1="-23.3808" x2="384.61" y2="128.684" gradientUnits="userSpaceOnUse">
<stop stop-color="#F6F6F6"/>
<stop offset="1" stop-color="#C9D6FF"/>
</linearGradient>
<linearGradient id="paint14_linear_333_1114" x1="405.832" y1="40.031" x2="414.755" y2="169.951" gradientUnits="userSpaceOnUse">
<stop stop-color="#1D4891"/>
<stop offset="1" stop-color="#182E65"/>
</linearGradient>
<linearGradient id="paint15_linear_333_1114" x1="318.362" y1="160.529" x2="313.073" y2="30.9418" gradientUnits="userSpaceOnUse">
<stop stop-color="#F6F6F6"/>
<stop offset="1" stop-color="#C9D6FF"/>
</linearGradient>
<linearGradient id="paint16_linear_333_1114" x1="310.05" y1="387.547" x2="288.895" y2="-109.635" gradientUnits="userSpaceOnUse">
<stop stop-color="#F9B233"/>
<stop offset="1" stop-color="#E6007E"/>
</linearGradient>
<linearGradient id="paint17_linear_333_1114" x1="399.799" y1="289.599" x2="201.451" y2="686.288" gradientUnits="userSpaceOnUse">
<stop stop-color="#F6F6F6"/>
<stop offset="1" stop-color="#C9D6FF"/>
</linearGradient>
<linearGradient id="paint18_linear_333_1114" x1="579.27" y1="359.076" x2="579.27" y2="550.813" gradientUnits="userSpaceOnUse">
<stop stop-color="#F6F6F6"/>
<stop offset="1" stop-color="#C9D6FF"/>
</linearGradient>
<linearGradient id="paint19_linear_333_1114" x1="295.047" y1="458.101" x2="300.342" y2="558.594" gradientUnits="userSpaceOnUse">
<stop stop-color="#F9B233"/>
<stop offset="1" stop-color="#E6007E"/>
</linearGradient>
<linearGradient id="paint20_linear_333_1114" x1="468.008" y1="-3.37524" x2="108.015" y2="432.986" gradientUnits="userSpaceOnUse">
<stop stop-color="#1D4891"/>
<stop offset="1" stop-color="#182E65"/>
</linearGradient>
<linearGradient id="paint21_linear_333_1114" x1="643.34" y1="239.535" x2="334.48" y2="338.812" gradientUnits="userSpaceOnUse">
<stop stop-color="#F9B233"/>
<stop offset="1" stop-color="#E6007E"/>
</linearGradient>
<linearGradient id="paint22_linear_333_1114" x1="549.439" y1="76.0224" x2="659.187" y2="586.433" gradientUnits="userSpaceOnUse">
<stop stop-color="#F9B233"/>
<stop offset="1" stop-color="#E6007E"/>
</linearGradient>
<linearGradient id="paint23_linear_333_1114" x1="642.47" y1="140.557" x2="282.476" y2="576.912" gradientUnits="userSpaceOnUse">
<stop stop-color="#1D4891"/>
<stop offset="1" stop-color="#182E65"/>
</linearGradient>
<linearGradient id="paint24_linear_333_1114" x1="264.423" y1="422.329" x2="265.36" y2="417.651" gradientUnits="userSpaceOnUse">
<stop stop-color="#FAD6C7"/>
<stop offset="1" stop-color="#E4857F"/>
</linearGradient>
<linearGradient id="paint25_linear_333_1114" x1="267.368" y1="418.635" x2="264.936" y2="396.848" gradientUnits="userSpaceOnUse">
<stop stop-color="#FAD6C7"/>
<stop offset="1" stop-color="#E4857F"/>
</linearGradient>
<linearGradient id="paint26_linear_333_1114" x1="290.289" y1="434.375" x2="265.367" y2="449.184" gradientUnits="userSpaceOnUse">
<stop stop-color="#FAD6C7"/>
<stop offset="1" stop-color="#E4857F"/>
</linearGradient>
<linearGradient id="paint27_linear_333_1114" x1="277.267" y1="525.439" x2="226.121" y2="491.342" gradientUnits="userSpaceOnUse">
<stop stop-color="#FAD6C7"/>
<stop offset="1" stop-color="#E4857F"/>
</linearGradient>
<linearGradient id="paint28_linear_333_1114" x1="260.192" y1="559.962" x2="259.248" y2="565.45" gradientUnits="userSpaceOnUse">
<stop stop-color="#1D4891"/>
<stop offset="1" stop-color="#182E65"/>
</linearGradient>
<linearGradient id="paint29_linear_333_1114" x1="290.815" y1="540.987" x2="231.688" y2="501.567" gradientUnits="userSpaceOnUse">
<stop stop-color="#FAD6C7"/>
<stop offset="1" stop-color="#E4857F"/>
</linearGradient>
<linearGradient id="paint30_linear_333_1114" x1="263.328" y1="426.182" x2="261.083" y2="582.048" gradientUnits="userSpaceOnUse">
<stop stop-color="#1D4891"/>
<stop offset="1" stop-color="#182E65"/>
</linearGradient>
<linearGradient id="paint31_linear_333_1114" x1="277.692" y1="573.696" x2="276.748" y2="579.184" gradientUnits="userSpaceOnUse">
<stop stop-color="#1D4891"/>
<stop offset="1" stop-color="#182E65"/>
</linearGradient>
<linearGradient id="paint32_linear_333_1114" x1="266.45" y1="484.058" x2="272.404" y2="486.771" gradientUnits="userSpaceOnUse">
<stop stop-color="#FAD6C7"/>
<stop offset="1" stop-color="#E4857F"/>
</linearGradient>
<linearGradient id="paint33_linear_333_1114" x1="269.965" y1="454.595" x2="268.403" y2="410.06" gradientUnits="userSpaceOnUse">
<stop stop-color="#FAD6C7"/>
<stop offset="1" stop-color="#E4857F"/>
</linearGradient>
<linearGradient id="paint34_linear_333_1114" x1="292.642" y1="423.359" x2="276.961" y2="463.629" gradientUnits="userSpaceOnUse">
<stop stop-color="#F9B233"/>
<stop offset="1" stop-color="#E6007E"/>
</linearGradient>
<linearGradient id="paint35_linear_333_1114" x1="548.361" y1="98.546" x2="546.713" y2="108.964" gradientUnits="userSpaceOnUse">
<stop stop-color="#F6F6F6"/>
<stop offset="1" stop-color="#C9D6FF"/>
</linearGradient>
<linearGradient id="paint36_linear_333_1114" x1="502.405" y1="262.145" x2="502.312" y2="262.145" gradientUnits="userSpaceOnUse">
<stop stop-color="#1D4891"/>
<stop offset="1" stop-color="#182E65"/>
</linearGradient>
<linearGradient id="paint37_linear_333_1114" x1="119.84" y1="353.07" x2="119.84" y2="198.773" gradientUnits="userSpaceOnUse">
<stop stop-color="#F9B233"/>
<stop offset="1" stop-color="#E6007E"/>
</linearGradient>
<linearGradient id="paint38_linear_333_1114" x1="119.84" y1="269.081" x2="119.84" y2="255.973" gradientUnits="userSpaceOnUse">
<stop stop-color="#F9B233"/>
<stop offset="1" stop-color="#E6007E"/>
</linearGradient>
<linearGradient id="paint39_linear_333_1114" x1="153.46" y1="329.198" x2="153.46" y2="137.335" gradientUnits="userSpaceOnUse">
<stop stop-color="#F9B233"/>
<stop offset="1" stop-color="#E6007E"/>
</linearGradient>
<linearGradient id="paint40_linear_333_1114" x1="153.46" y1="224.067" x2="153.46" y2="210.958" gradientUnits="userSpaceOnUse">
<stop stop-color="#F9B233"/>
<stop offset="1" stop-color="#E6007E"/>
</linearGradient>
<linearGradient id="paint41_linear_333_1114" x1="51.3919" y1="386.876" x2="51.3919" y2="195.012" gradientUnits="userSpaceOnUse">
<stop stop-color="#F9B233"/>
<stop offset="1" stop-color="#E6007E"/>
</linearGradient>
<linearGradient id="paint42_linear_333_1114" x1="51.3918" y1="281.739" x2="51.3918" y2="268.63" gradientUnits="userSpaceOnUse">
<stop stop-color="#F9B233"/>
<stop offset="1" stop-color="#E6007E"/>
</linearGradient>
<linearGradient id="paint43_linear_333_1114" x1="16.431" y1="418.741" x2="16.431" y2="311.411" gradientUnits="userSpaceOnUse">
<stop stop-color="#F9B233"/>
<stop offset="1" stop-color="#E6007E"/>
</linearGradient>
<linearGradient id="paint44_linear_333_1114" x1="16.4316" y1="361.189" x2="16.4316" y2="348.08" gradientUnits="userSpaceOnUse">
<stop stop-color="#F9B233"/>
<stop offset="1" stop-color="#E6007E"/>
</linearGradient>
<linearGradient id="paint45_linear_333_1114" x1="86.2142" y1="360.864" x2="86.2142" y2="112.645" gradientUnits="userSpaceOnUse">
<stop stop-color="#F9B233"/>
<stop offset="1" stop-color="#E6007E"/>
</linearGradient>
<linearGradient id="paint46_linear_333_1114" x1="86.214" y1="224.014" x2="86.214" y2="210.905" gradientUnits="userSpaceOnUse">
<stop stop-color="#F9B233"/>
<stop offset="1" stop-color="#E6007E"/>
</linearGradient>
<linearGradient id="paint47_linear_333_1114" x1="525.605" y1="110.625" x2="568.845" y2="118.332" gradientUnits="userSpaceOnUse">
<stop stop-color="#FAD6C7"/>
<stop offset="1" stop-color="#E4857F"/>
</linearGradient>
<linearGradient id="paint48_linear_333_1114" x1="529.079" y1="153.885" x2="533.969" y2="222.386" gradientUnits="userSpaceOnUse">
<stop stop-color="#FAD6C7"/>
<stop offset="1" stop-color="#E4857F"/>
</linearGradient>
<linearGradient id="paint49_linear_333_1114" x1="538.648" y1="160.403" x2="543.538" y2="228.904" gradientUnits="userSpaceOnUse">
<stop stop-color="#FAD6C7"/>
<stop offset="1" stop-color="#E4857F"/>
</linearGradient>
<linearGradient id="paint50_linear_333_1114" x1="554.036" y1="84.1282" x2="544.243" y2="147.427" gradientUnits="userSpaceOnUse">
<stop stop-color="#F9B233"/>
<stop offset="1" stop-color="#E6007E"/>
</linearGradient>
<linearGradient id="paint51_linear_333_1114" x1="548.727" y1="133.169" x2="533.771" y2="145.693" gradientUnits="userSpaceOnUse">
<stop stop-color="#F6F6F6"/>
<stop offset="1" stop-color="#C9D6FF"/>
</linearGradient>
<linearGradient id="paint52_linear_333_1114" x1="533.373" y1="122.339" x2="528.025" y2="156.915" gradientUnits="userSpaceOnUse">
<stop stop-color="#F6F6F6"/>
<stop offset="1" stop-color="#C9D6FF"/>
</linearGradient>
<linearGradient id="paint53_linear_333_1114" x1="551.1" y1="137.786" x2="549.851" y2="138.524" gradientUnits="userSpaceOnUse">
<stop stop-color="#F6F6F6"/>
<stop offset="1" stop-color="#C9D6FF"/>
</linearGradient>
<linearGradient id="paint54_linear_333_1114" x1="523.879" y1="127.814" x2="520.098" y2="156.456" gradientUnits="userSpaceOnUse">
<stop stop-color="#FAD6C7"/>
<stop offset="1" stop-color="#E4857F"/>
</linearGradient>
<linearGradient id="paint55_linear_333_1114" x1="557.935" y1="117.427" x2="543.184" y2="151.087" gradientUnits="userSpaceOnUse">
<stop stop-color="#FAD6C7"/>
<stop offset="1" stop-color="#E4857F"/>
</linearGradient>
<linearGradient id="paint56_linear_333_1114" x1="550.979" y1="86.0417" x2="552.009" y2="79.6833" gradientUnits="userSpaceOnUse">
<stop stop-color="#FAD6C7"/>
<stop offset="1" stop-color="#E4857F"/>
</linearGradient>
<linearGradient id="paint57_linear_333_1114" x1="553.801" y1="79.6378" x2="555.619" y2="70.1882" gradientUnits="userSpaceOnUse">
<stop stop-color="#FAD6C7"/>
<stop offset="1" stop-color="#E4857F"/>
</linearGradient>
<linearGradient id="paint58_linear_333_1114" x1="85.7028" y1="549.252" x2="84.0351" y2="529.798" gradientUnits="userSpaceOnUse">
<stop stop-color="#F6F6F6"/>
<stop offset="1" stop-color="#C9D6FF"/>
</linearGradient>
<linearGradient id="paint59_linear_333_1114" x1="124.125" y1="385.826" x2="124.125" y2="415.864" gradientUnits="userSpaceOnUse">
<stop stop-color="#F6F6F6"/>
<stop offset="1" stop-color="#C9D6FF"/>
</linearGradient>
<linearGradient id="paint60_linear_333_1114" x1="73.4237" y1="429.279" x2="90.9975" y2="467.815" gradientUnits="userSpaceOnUse">
<stop stop-color="#F6F6F6"/>
<stop offset="1" stop-color="#C9D6FF"/>
</linearGradient>
<linearGradient id="paint61_linear_333_1114" x1="16.3313" y1="471.263" x2="15.7666" y2="504.703" gradientUnits="userSpaceOnUse">
<stop stop-color="#F6F6F6"/>
<stop offset="1" stop-color="#C9D6FF"/>
</linearGradient>
<linearGradient id="paint62_linear_333_1114" x1="52.2961" y1="427.691" x2="-6.64415" y2="470.765" gradientUnits="userSpaceOnUse">
<stop stop-color="#F6F6F6"/>
<stop offset="1" stop-color="#C9D6FF"/>
</linearGradient>
<linearGradient id="paint63_linear_333_1114" x1="54.4955" y1="392.982" x2="111.828" y2="550.308" gradientUnits="userSpaceOnUse">
<stop stop-color="#1D4891"/>
<stop offset="1" stop-color="#182E65"/>
</linearGradient>
<linearGradient id="paint64_linear_333_1114" x1="29.6792" y1="384.291" x2="38.9743" y2="394.915" gradientUnits="userSpaceOnUse">
<stop stop-color="#F9B233"/>
<stop offset="1" stop-color="#E6007E"/>
</linearGradient>
<linearGradient id="paint65_linear_333_1114" x1="20.3902" y1="359.243" x2="105.103" y2="479.628" gradientUnits="userSpaceOnUse">
<stop stop-color="#F9B233"/>
<stop offset="1" stop-color="#E6007E"/>
</linearGradient>
<linearGradient id="paint66_linear_333_1114" x1="691.225" y1="249.953" x2="708.107" y2="579.796" gradientUnits="userSpaceOnUse">
<stop stop-color="#1D4891"/>
<stop offset="1" stop-color="#182E65"/>
</linearGradient>
<linearGradient id="paint67_linear_333_1114" x1="686.563" y1="401.138" x2="744.067" y2="660.432" gradientUnits="userSpaceOnUse">
<stop stop-color="#1D4891"/>
<stop offset="1" stop-color="#182E65"/>
</linearGradient>
<linearGradient id="paint68_linear_333_1114" x1="682.002" y1="402.152" x2="739.506" y2="661.446" gradientUnits="userSpaceOnUse">
<stop stop-color="#1D4891"/>
<stop offset="1" stop-color="#182E65"/>
</linearGradient>
<linearGradient id="paint69_linear_333_1114" x1="677.309" y1="403.198" x2="734.813" y2="662.486" gradientUnits="userSpaceOnUse">
<stop stop-color="#1D4891"/>
<stop offset="1" stop-color="#182E65"/>
</linearGradient>
<linearGradient id="paint70_linear_333_1114" x1="672.748" y1="404.213" x2="730.245" y2="663.506" gradientUnits="userSpaceOnUse">
<stop stop-color="#1D4891"/>
<stop offset="1" stop-color="#182E65"/>
</linearGradient>
<linearGradient id="paint71_linear_333_1114" x1="668.057" y1="405.253" x2="725.56" y2="664.546" gradientUnits="userSpaceOnUse">
<stop stop-color="#1D4891"/>
<stop offset="1" stop-color="#182E65"/>
</linearGradient>
<linearGradient id="paint72_linear_333_1114" x1="663.493" y1="406.274" x2="720.991" y2="665.56" gradientUnits="userSpaceOnUse">
<stop stop-color="#1D4891"/>
<stop offset="1" stop-color="#182E65"/>
</linearGradient>
<linearGradient id="paint73_linear_333_1114" x1="658.629" y1="407.353" x2="716.126" y2="666.646" gradientUnits="userSpaceOnUse">
<stop stop-color="#1D4891"/>
<stop offset="1" stop-color="#182E65"/>
</linearGradient>
<linearGradient id="paint74_linear_333_1114" x1="325.743" y1="274.808" x2="325.859" y2="278.496" gradientUnits="userSpaceOnUse">
<stop stop-color="#F6F6F6"/>
<stop offset="1" stop-color="#C9D6FF"/>
</linearGradient>
<linearGradient id="paint75_linear_333_1114" x1="648.714" y1="270.262" x2="661.047" y2="600.312" gradientUnits="userSpaceOnUse">
<stop stop-color="#1D4891"/>
<stop offset="1" stop-color="#182E65"/>
</linearGradient>
<linearGradient id="paint76_linear_333_1114" x1="330.227" y1="286.11" x2="331.164" y2="301.206" gradientUnits="userSpaceOnUse">
<stop stop-color="#FAD6C7"/>
<stop offset="1" stop-color="#E4857F"/>
</linearGradient>
<linearGradient id="paint77_linear_333_1114" x1="315.807" y1="284.83" x2="332.505" y2="294.359" gradientUnits="userSpaceOnUse">
<stop stop-color="#F6F6F6"/>
<stop offset="1" stop-color="#C9D6FF"/>
</linearGradient>
<linearGradient id="paint78_linear_333_1114" x1="320.262" y1="271.752" x2="315.591" y2="262.876" gradientUnits="userSpaceOnUse">
<stop stop-color="#1D4891"/>
<stop offset="1" stop-color="#182E65"/>
</linearGradient>
<linearGradient id="paint79_linear_333_1114" x1="302.888" y1="252.225" x2="329.032" y2="327.563" gradientUnits="userSpaceOnUse">
<stop stop-color="#F6F6F6"/>
<stop offset="1" stop-color="#C9D6FF"/>
</linearGradient>
<linearGradient id="paint80_linear_333_1114" x1="311.671" y1="283.233" x2="303.525" y2="300.502" gradientUnits="userSpaceOnUse">
<stop stop-color="#FAD6C7"/>
<stop offset="1" stop-color="#E4857F"/>
</linearGradient>
<linearGradient id="paint81_linear_333_1114" x1="305.147" y1="251.707" x2="303.083" y2="244.618" gradientUnits="userSpaceOnUse">
<stop stop-color="#FAD6C7"/>
<stop offset="1" stop-color="#E4857F"/>
</linearGradient>
<linearGradient id="paint82_linear_333_1114" x1="334.056" y1="269.834" x2="348.629" y2="307.406" gradientUnits="userSpaceOnUse">
<stop stop-color="#F6F6F6"/>
<stop offset="1" stop-color="#C9D6FF"/>
</linearGradient>
<linearGradient id="paint83_linear_333_1114" x1="297.02" y1="280.656" x2="301.073" y2="254.192" gradientUnits="userSpaceOnUse">
<stop stop-color="#1D4891"/>
<stop offset="1" stop-color="#182E65"/>
</linearGradient>
<linearGradient id="paint84_linear_333_1114" x1="305.221" y1="245.779" x2="307.615" y2="237.586" gradientUnits="userSpaceOnUse">
<stop stop-color="#FAD6C7"/>
<stop offset="1" stop-color="#E4857F"/>
</linearGradient>
<linearGradient id="paint85_linear_333_1114" x1="588.97" y1="58.6811" x2="663.531" y2="89.1047" gradientUnits="userSpaceOnUse">
<stop stop-color="#F9B233"/>
<stop offset="1" stop-color="#E6007E"/>
</linearGradient>
<linearGradient id="paint86_linear_333_1114" x1="618.563" y1="-5.22896" x2="618.563" y2="0.252464" gradientUnits="userSpaceOnUse">
<stop stop-color="#F9B233"/>
<stop offset="1" stop-color="#E6007E"/>
</linearGradient>
<linearGradient id="paint87_linear_333_1114" x1="594.385" y1="96.7388" x2="595.196" y2="100.293" gradientUnits="userSpaceOnUse">
<stop stop-color="#F9B233"/>
<stop offset="1" stop-color="#E6007E"/>
</linearGradient>
<linearGradient id="paint88_linear_333_1114" x1="594.385" y1="98.8716" x2="595.196" y2="102.426" gradientUnits="userSpaceOnUse">
<stop stop-color="#F9B233"/>
<stop offset="1" stop-color="#E6007E"/>
</linearGradient>
<linearGradient id="paint89_linear_333_1114" x1="594.385" y1="101.004" x2="595.196" y2="104.559" gradientUnits="userSpaceOnUse">
<stop stop-color="#F9B233"/>
<stop offset="1" stop-color="#E6007E"/>
</linearGradient>
<linearGradient id="paint90_linear_333_1114" x1="594.385" y1="103.137" x2="595.196" y2="106.692" gradientUnits="userSpaceOnUse">
<stop stop-color="#F9B233"/>
<stop offset="1" stop-color="#E6007E"/>
</linearGradient>
<linearGradient id="paint91_linear_333_1114" x1="596.047" y1="104.898" x2="596.619" y2="107.403" gradientUnits="userSpaceOnUse">
<stop stop-color="#F9B233"/>
<stop offset="1" stop-color="#E6007E"/>
</linearGradient>
<linearGradient id="paint92_linear_333_1114" x1="597.76" y1="78.8328" x2="597.501" y2="80.9257" gradientUnits="userSpaceOnUse">
<stop stop-color="#F9B233"/>
<stop offset="1" stop-color="#E6007E"/>
</linearGradient>
<linearGradient id="paint93_linear_333_1114" x1="619.847" y1="36.9946" x2="619.847" y2="42.2169" gradientUnits="userSpaceOnUse">
<stop stop-color="#F9B233"/>
<stop offset="1" stop-color="#E6007E"/>
</linearGradient>
<linearGradient id="paint94_linear_333_1114" x1="657.252" y1="38.1441" x2="653.073" y2="41.7984" gradientUnits="userSpaceOnUse">
<stop stop-color="#F9B233"/>
<stop offset="1" stop-color="#E6007E"/>
</linearGradient>
<linearGradient id="paint95_linear_333_1114" x1="657.253" y1="38.1441" x2="653.074" y2="41.7983" gradientUnits="userSpaceOnUse">
<stop stop-color="#F9B233"/>
<stop offset="1" stop-color="#E6007E"/>
</linearGradient>
<linearGradient id="paint96_linear_333_1114" x1="648.934" y1="71.6505" x2="659.644" y2="95.1508" gradientUnits="userSpaceOnUse">
<stop stop-color="#F9B233"/>
<stop offset="1" stop-color="#E6007E"/>
</linearGradient>
<linearGradient id="paint97_linear_333_1114" x1="115.902" y1="199.996" x2="115.902" y2="203.251" gradientUnits="userSpaceOnUse">
<stop stop-color="#F9B233"/>
<stop offset="1" stop-color="#E6007E"/>
</linearGradient>
<linearGradient id="paint98_linear_333_1114" x1="167.746" y1="123.096" x2="167.746" y2="129.222" gradientUnits="userSpaceOnUse">
<stop stop-color="#F9B233"/>
<stop offset="1" stop-color="#E6007E"/>
</linearGradient>
<linearGradient id="paint99_linear_333_1114" x1="88.6928" y1="31.068" x2="88.6928" y2="37.194" gradientUnits="userSpaceOnUse">
<stop stop-color="#F9B233"/>
<stop offset="1" stop-color="#E6007E"/>
</linearGradient>
<linearGradient id="paint100_linear_333_1114" x1="206.142" y1="362.179" x2="204.634" y2="366.691" gradientUnits="userSpaceOnUse">
<stop stop-color="#F6F6F6"/>
<stop offset="1" stop-color="#C9D6FF"/>
</linearGradient>
<linearGradient id="paint101_linear_333_1114" x1="190.999" y1="355.808" x2="169.16" y2="413.14" gradientUnits="userSpaceOnUse">
<stop stop-color="#F6F6F6"/>
<stop offset="1" stop-color="#C9D6FF"/>
</linearGradient>
<linearGradient id="paint102_linear_333_1114" x1="174.389" y1="346.546" x2="200.301" y2="346.546" gradientUnits="userSpaceOnUse">
<stop stop-color="#F6F6F6"/>
<stop offset="1" stop-color="#C9D6FF"/>
</linearGradient>
<linearGradient id="paint103_linear_333_1114" x1="179.459" y1="348.765" x2="195.232" y2="348.765" gradientUnits="userSpaceOnUse">
<stop stop-color="#1D4891"/>
<stop offset="1" stop-color="#182E65"/>
</linearGradient>
<linearGradient id="paint104_linear_333_1114" x1="172.209" y1="270.417" x2="216.147" y2="365.056" gradientUnits="userSpaceOnUse">
<stop stop-color="#F9B233"/>
<stop offset="1" stop-color="#E6007E"/>
</linearGradient>
<linearGradient id="paint105_linear_333_1114" x1="178.01" y1="313.258" x2="166.775" y2="352.412" gradientUnits="userSpaceOnUse">
<stop stop-color="#F9B233"/>
<stop offset="1" stop-color="#E6007E"/>
</linearGradient>
<linearGradient id="paint106_linear_333_1114" x1="191.824" y1="327.822" x2="179.626" y2="366.119" gradientUnits="userSpaceOnUse">
<stop stop-color="#F9B233"/>
<stop offset="1" stop-color="#E6007E"/>
</linearGradient>
<clipPath id="clip0_333_1114">
<rect width="720.937" height="600" fill="white"/>
</clipPath>
</defs>
</svg>
